<svg width="64" height="64" viewBox="0 0 64 64" fill="none" xmlns="http://www.w3.org/2000/svg">
<circle cx="32" cy="32" r="32" fill="#006AE3"/>
<path d="M30.2891 41.7096L32.1906 33.8832L36.6924 32.0854L37.8122 27.4858L37.774 27.3718L33.3425 29.1413L36.5354 16H27.4804L23.3049 33.1498L19.8186 34.5419L18.6667 39.2836L22.1503 37.8928L19.6894 48H43.7884L45.3333 41.7096H30.2891Z" fill="white"/>
<path fill-rule="evenodd" clip-rule="evenodd" d="M32 64C49.6719 64 64 49.6732 64 32C64 14.3268 49.6719 0 32 0C14.3281 0 0 14.3268 0 32C0 49.6732 14.3281 64 32 64ZM32 58.6667C46.7266 58.6667 58.6667 46.7279 58.6667 32C58.6667 17.2721 46.7266 5.33333 32 5.33333C17.2734 5.33333 5.33333 17.2721 5.33333 32C5.33333 46.7279 17.2734 58.6667 32 58.6667Z" fill="white" fill-opacity="0.4"/>
</svg>
