<svg width="64" height="64" viewBox="0 0 64 64" fill="none" xmlns="http://www.w3.org/2000/svg">
<circle cx="32" cy="32" r="32" fill="#4DE890"/>
<path fill-rule="evenodd" clip-rule="evenodd" d="M32 64C49.6719 64 64 49.6732 64 32C64 14.3268 49.6719 0 32 0C14.3281 0 0 14.3268 0 32C0 49.6732 14.3281 64 32 64ZM32 58.6667C46.7266 58.6667 58.6667 46.7279 58.6667 32C58.6667 17.2721 46.7266 5.33333 32 5.33333C17.2734 5.33333 5.33333 17.2721 5.33333 32C5.33333 46.7279 17.2734 58.6667 32 58.6667Z" fill="white" fill-opacity="0.4"/>
<path d="M31.6458 49.7551H26.5094L29.0776 36.2399C29.3071 35.3038 29.0776 34.6151 28.3782 34.6151L26.7497 34.8446L21.1363 49.7551H16L30.0066 11.5518H40.5052C43.5433 11.5518 44.7126 14.3423 43.5433 17.8395L38.6473 30.4185C37.9478 32.2836 36.7821 32.7499 35.1501 33.9085C35.6128 35.3038 31.6458 49.7551 31.6458 49.7551ZM33.2742 30.1889L38.6473 16.2146H33.9844L28.6077 30.1889H33.2742Z" fill="white"/>
<path d="M44.5978 49.7811V25.7852L35.7275 49.7811H44.5978Z" fill="white"/>
</svg>
