<svg width="64" height="64" viewBox="0 0 64 64" fill="none" xmlns="http://www.w3.org/2000/svg">
<circle cx="32" cy="32" r="32" fill="#547FEF"/>
<path d="M31.9997 53.3337V42.5024L45.333 34.667L31.9997 53.3337Z" fill="#BDD0FB"/>
<path d="M32 53.3337V42.5024L18.6667 34.667L32 53.3337Z" fill="#FFFFFD"/>
<path d="M31.9997 40.0003V26.667L45.333 32.5204L31.9997 40.0003Z" fill="#7597F1"/>
<path d="M32 40.0003V26.667L18.6667 32.5204L32 40.0003Z" fill="#C5CDF2"/>
<path d="M45.333 32.0003L31.9997 10.667V26.0869L45.333 32.0003Z" fill="#BEC7FF"/>
<path d="M18.6667 32.0003L32 10.667V26.0869L18.6667 32.0003Z" fill="#FFFCFF"/>
<path fill-rule="evenodd" clip-rule="evenodd" d="M32 64C49.6719 64 64 49.6732 64 32C64 14.3268 49.6719 0 32 0C14.3281 0 0 14.3268 0 32C0 49.6732 14.3281 64 32 64ZM32 58.6667C46.7266 58.6667 58.6667 46.7279 58.6667 32C58.6667 17.2721 46.7266 5.33333 32 5.33333C17.2734 5.33333 5.33333 17.2721 5.33333 32C5.33333 46.7279 17.2734 58.6667 32 58.6667Z" fill="white" fill-opacity="0.4"/>
</svg>
