<svg width="64" height="64" viewBox="0 0 64 64" fill="none" xmlns="http://www.w3.org/2000/svg">
<circle cx="32" cy="32" r="32" fill="#099FCD"/>
<path fill-rule="evenodd" clip-rule="evenodd" d="M32 64C49.6719 64 64 49.6732 64 32C64 14.3268 49.6719 0 32 0C14.3281 0 0 14.3268 0 32C0 49.6732 14.3281 64 32 64ZM32 58.6667C46.7266 58.6667 58.6667 46.7279 58.6667 32C58.6667 17.2721 46.7266 5.33333 32 5.33333C17.2734 5.33333 5.33333 17.2721 5.33333 32C5.33333 46.7279 17.2734 58.6667 32 58.6667Z" fill="#999999" fill-opacity="0.4"/>
<path d="M50.6666 46.7245H13.3333V48.3671H50.6666V46.7245ZM17.4936 28.0053H18.8085V40.9238H17.4936V42.5665H24.6103V40.9238H23.4063V28.0053H24.6103V26.253H17.4936V28.0053ZM28.4428 28.0053H29.6468V40.9238H28.4428V42.5665H35.5595V40.9238H34.3555V28.0053H35.5595V26.253H28.4428V28.0053ZM46.5063 28.0053V26.253H39.28V28.0053H40.5936V40.9238H39.28V42.5665H46.5063V40.9238H45.1926V28.0053H46.5063ZM48.3683 43.879H15.6316V45.5205H48.3683V43.879ZM31.9451 13.3333L15.6328 20.45V25.0478H48.3671V20.45L31.9451 13.3333Z" fill="white"/>
</svg>
