<svg width="64" height="64" viewBox="0 0 64 64" fill="none" xmlns="http://www.w3.org/2000/svg">
<circle cx="32" cy="32" r="32" fill="#FFB600"/>
<path d="M45.2567 28.3417C45.867 24.4189 42.7606 22.31 38.5131 20.9032L39.8909 15.5892L36.5268 14.7831L35.1854 19.9571C34.301 19.7452 33.3926 19.5452 32.49 19.3472L33.8411 14.1391L30.4789 13.333L29.1001 18.6452C28.368 18.4849 27.6494 18.3264 26.9518 18.1596L26.9557 18.1431L22.3162 17.0292L21.4213 20.484C21.4213 20.484 23.9173 21.0341 23.8646 21.0681C25.2271 21.3952 25.4734 22.2621 25.4322 22.9494L23.8627 29.0032C23.9566 29.0262 24.0783 29.0594 24.2124 29.111C24.1003 29.0843 23.9806 29.0548 23.857 29.0262L21.657 37.5067C21.4903 37.9047 21.0677 38.5017 20.1153 38.275C20.1489 38.322 17.6701 37.6882 17.6701 37.6882L16 41.3908L20.3779 42.4402C21.1923 42.6364 21.9905 42.8419 22.7761 43.0353L21.3839 48.4101L24.7442 49.2162L26.123 43.8986C27.0409 44.1381 27.932 44.3592 28.804 44.5674L27.43 49.8602L30.7941 50.6663L32.1863 45.3017C37.9229 46.3455 42.2365 45.9245 44.0522 40.9357C45.5154 36.9189 43.9794 34.6019 40.9612 33.0909C43.1592 32.6036 44.815 31.2134 45.2567 28.3417ZM37.5703 38.7053C36.5306 42.7221 29.4967 40.5506 27.2163 40.0061L29.0636 32.8855C31.3441 33.4327 38.6568 34.5162 37.5703 38.7053ZM38.6108 28.2837C37.6622 31.9375 31.8078 30.0811 29.9087 29.626L31.5836 23.1678C33.4827 23.6229 39.5987 24.4723 38.6108 28.2837Z" fill="white"/>
<path fill-rule="evenodd" clip-rule="evenodd" d="M32 64C49.6719 64 64 49.6732 64 32C64 14.3268 49.6719 0 32 0C14.3281 0 0 14.3268 0 32C0 49.6732 14.3281 64 32 64ZM32 58.6667C46.7266 58.6667 58.6667 46.7279 58.6667 32C58.6667 17.2721 46.7266 5.33333 32 5.33333C17.2734 5.33333 5.33333 17.2721 5.33333 32C5.33333 46.7279 17.2734 58.6667 32 58.6667Z" fill="white" fill-opacity="0.4"/>
</svg>
