<svg width="64" height="64" viewBox="0 0 64 64" fill="none" xmlns="http://www.w3.org/2000/svg">
<circle cx="32" cy="32" r="32" fill="white"/>
<path fill-rule="evenodd" clip-rule="evenodd" d="M32 64C49.6719 64 64 49.6732 64 32C64 14.3268 49.6719 0 32 0C14.3281 0 0 14.3268 0 32C0 49.6732 14.3281 64 32 64ZM32 58.6667C46.7266 58.6667 58.6667 46.7279 58.6667 32C58.6667 17.2721 46.7266 5.33333 32 5.33333C17.2734 5.33333 5.33333 17.2721 5.33333 32C5.33333 46.7279 17.2734 58.6667 32 58.6667Z" fill="#C2A633" fill-opacity="0.4"/>
<mask id="mask0_2638_7581" style="mask-type:alpha" maskUnits="userSpaceOnUse" x="5" y="5" width="54" height="54">
<path fill-rule="evenodd" clip-rule="evenodd" d="M32 58.6666C46.7265 58.6666 58.6667 46.7278 58.6667 32C58.6667 17.2721 46.7265 5.33331 32 5.33331C17.2734 5.33331 5.33331 17.2721 5.33331 32C5.33331 46.7278 17.2734 58.6666 32 58.6666Z" fill="white"/>
</mask>
<g mask="url(#mask0_2638_7581)">
<path d="M32.76 21.0899H28.188V30.1039H35.38V33.8779H28.188V42.8919H32.984C34.216 42.8919 43.1 43.0319 43.088 32.4039C43.074 21.7779 34.468 21.0899 32.76 21.0899Z" fill="#C2A633"/>
<path d="M32 0C14.326 0 0 14.326 0 32C0 49.674 14.326 64 32 64C49.674 64 64 49.674 64 32C64 14.326 49.674 0 32 0ZM33.258 49.284H21.668V33.876H17.584V30.102H21.668V14.694H31.614C33.968 14.694 49.554 14.206 49.554 32.278C49.554 50.65 33.258 49.284 33.258 49.284Z" fill="#C2A633"/>
</g>
</svg>
