<svg width="64" height="64" viewBox="0 0 64 64" fill="none" xmlns="http://www.w3.org/2000/svg">
<circle cx="32" cy="32" r="32" fill="#1C1C1C"/>
<path d="M21.7467 31.9997L17.5601 36.1919L13.333 31.9997L17.5585 27.7701L21.7467 31.9997ZM31.9818 21.7548L39.1927 28.9726L43.4197 24.7446L31.9818 13.333L20.5439 24.7819L24.7709 29.0099L31.9818 21.7548ZM46.4051 27.7701L42.2169 31.9997L46.4424 36.2292L50.6663 31.9997L46.4051 27.7701ZM31.9818 42.2446L24.7709 34.9895L20.5439 39.219L31.9818 50.6663L43.4197 39.2175L39.1927 34.9895L31.9818 42.2446ZM31.9818 36.1935L36.2073 31.9623L31.9818 27.7717L27.7563 31.9997L31.9818 36.1919V36.1935Z" fill="#F0B90B"/>
<path fill-rule="evenodd" clip-rule="evenodd" d="M32 64C49.6719 64 64 49.6732 64 32C64 14.3268 49.6719 0 32 0C14.3281 0 0 14.3268 0 32C0 49.6732 14.3281 64 32 64ZM32 58.6667C46.7266 58.6667 58.6667 46.7279 58.6667 32C58.6667 17.2721 46.7266 5.33333 32 5.33333C17.2734 5.33333 5.33333 17.2721 5.33333 32C5.33333 46.7279 17.2734 58.6667 32 58.6667Z" fill="white" fill-opacity="0.4"/>
</svg>
