<svg width="64" height="64" viewBox="0 0 64 64" fill="none" xmlns="http://www.w3.org/2000/svg">
<circle cx="32" cy="32" r="32" fill="#2366FE"/>
<path fill-rule="evenodd" clip-rule="evenodd" d="M32 64C49.6719 64 64 49.6732 64 32C64 14.3268 49.6719 0 32 0C14.3281 0 0 14.3268 0 32C0 49.6732 14.3281 64 32 64ZM32 58.6667C46.7266 58.6667 58.6667 46.7279 58.6667 32C58.6667 17.2721 46.7266 5.33333 32 5.33333C17.2734 5.33333 5.33333 17.2721 5.33333 32C5.33333 46.7279 17.2734 58.6667 32 58.6667Z" fill="white" fill-opacity="0.4"/>
<path d="M20.5171 16.0155H43.6335C45.8122 16.0155 46.8965 17.7032 47.1315 19.9328L47.2314 20.6451C47.2707 21.0137 47.1672 21.3836 46.9434 21.6737C46.7197 21.9638 46.3939 22.1506 46.0371 22.1934C45.687 22.2221 45.3401 22.107 45.0715 21.8732C44.8031 21.6394 44.6347 21.3056 44.6029 20.9444L44.503 20.258C44.4081 19.4115 44.0632 18.7561 43.2288 18.7561H20.9269C20.0924 18.7561 19.7476 19.4115 19.6476 20.258L19.5577 20.9341C19.526 21.2959 19.3567 21.63 19.0869 21.8631C18.8172 22.0962 18.469 22.2094 18.1185 22.1779C17.9416 22.1574 17.7704 22.101 17.6146 22.0121C17.4588 21.9231 17.3215 21.8033 17.2106 21.6595C17.0996 21.5157 17.0172 21.3507 16.9681 21.174C16.919 20.9972 16.9041 20.8123 16.9242 20.6296L17.0192 19.9173C17.279 17.6929 18.3584 16 20.5171 16" fill="white"/>
<path d="M43.7843 37.3253C44.3497 37.3566 44.9039 37.1552 45.3257 36.7651C45.7474 36.3751 46.0022 35.8282 46.0342 35.2445C46.0362 35.2062 46.0362 35.1678 46.0342 35.1296C46.0085 33.844 44.8751 33.0135 43.6132 33.009H41.0597C40.7761 33.009 40.5042 32.8927 40.3036 32.6856C40.1031 32.4784 39.9904 32.1975 39.9904 31.9046C39.9904 31.6117 40.1031 31.3308 40.3036 31.1236C40.5042 30.9166 40.7761 30.8002 41.0597 30.8002H42.7706C43.9213 30.7516 44.8067 30.0314 44.8622 28.9138C44.9179 27.7077 43.917 26.8065 42.6979 26.8065H38.5575V37.3076H43.7843M46.9197 28.9138C46.9216 29.3746 46.8343 29.8311 46.6632 30.2567C46.4921 30.6823 46.2404 31.0683 45.9231 31.3921L45.8588 31.4672L45.9444 31.5202C46.5699 31.8794 47.0953 32.399 47.47 33.0289C47.8445 33.6588 48.0557 34.3777 48.0831 35.1164C48.098 36.2827 47.6656 37.408 46.8804 38.2463C46.095 39.0847 45.0205 39.5684 43.8913 39.5916H37.4753C37.1785 39.5869 36.8954 39.4612 36.6879 39.242C36.4804 39.0226 36.3652 38.7275 36.3674 38.4208V25.8169C36.3652 25.6623 36.3929 25.5088 36.449 25.3654C36.5051 25.2221 36.5884 25.0918 36.6941 24.9822C36.7998 24.8727 36.9256 24.7861 37.0642 24.7276C37.2027 24.6692 37.3513 24.64 37.501 24.6417H42.6979C43.7868 24.6108 44.843 25.0276 45.6346 25.8004C46.4261 26.5732 46.8884 27.6389 46.9197 28.7636V28.9093" fill="white"/>
<path d="M26.6272 35.2793L26.6572 35.3677L26.6871 35.2793C26.978 34.4488 27.3329 33.5122 27.7051 32.527C28.0773 31.5418 28.475 30.4639 28.8557 29.5008C29.2364 28.5378 29.6085 27.6542 29.9593 26.8943C30.1902 26.3336 30.4769 25.7991 30.8148 25.2995C30.9793 25.0884 31.1888 24.9192 31.4269 24.805C31.665 24.6909 31.9253 24.6348 32.1877 24.6413H32.4487C32.7453 24.6285 33.0365 24.7256 33.2699 24.9152C33.449 25.0686 33.5652 25.2864 33.595 25.5248L35.2247 38.5573C35.2312 38.7016 35.2101 38.8458 35.1623 38.9815C35.1147 39.1173 35.0413 39.2419 34.9466 39.3482C34.7259 39.5389 34.4424 39.6339 34.1553 39.6132C33.8622 39.6302 33.5723 39.5429 33.334 39.3658C33.2287 39.2916 33.1402 39.1946 33.0746 39.0818C33.0088 38.969 32.9675 38.8428 32.9534 38.712C32.8978 38.2701 32.8507 37.7975 32.7994 37.2673C32.748 36.7372 32.4744 34.4708 32.4017 33.8921C32.3289 33.3134 31.8798 29.6245 31.7215 28.286V28.1711L31.1997 29.302C31.0243 29.6908 30.8318 30.1546 30.6222 30.6981C30.4126 31.2414 30.1945 31.8158 29.9934 32.4254C29.7924 33.0351 28.7573 35.9862 28.7573 35.9862C28.6632 36.2556 28.4836 36.7991 28.3295 37.3115C28.1756 37.824 28.0173 38.2614 27.9789 38.3452C27.8024 38.702 27.4959 38.9717 27.127 39.0951C26.758 39.2186 26.3568 39.1856 26.0112 39.0035C25.73 38.8586 25.5009 38.6249 25.3568 38.3365C25.3141 38.2525 25.1686 37.8019 25.0019 37.3027C24.8351 36.8035 24.6724 36.2645 24.5741 35.9773C24.5741 35.9773 23.5689 32.9998 23.3422 32.4166C23.1155 31.8335 22.9145 31.237 22.7135 30.6892C22.5124 30.1414 22.3071 29.6819 22.136 29.2932L21.6099 28.1755V28.2903C21.4516 29.6157 20.9982 33.3089 20.9255 33.8966C20.8528 34.4842 20.5876 36.7284 20.5277 37.2541C20.4679 37.7798 20.4208 38.2658 20.3695 38.6987C20.3553 38.8296 20.314 38.9558 20.2483 39.0686C20.1826 39.1814 20.0941 39.2782 19.9888 39.3525C19.7517 39.5286 19.4635 39.6159 19.1718 39.6C18.8875 39.6197 18.6069 39.5246 18.3891 39.3348C18.2944 39.2287 18.221 39.104 18.1733 38.9682C18.1256 38.8325 18.1044 38.6883 18.1111 38.5441L19.7193 25.5248C19.7567 25.2955 19.8738 25.0881 20.0487 24.9417C20.2779 24.7416 20.5699 24.6347 20.8699 24.6413H21.1309C21.3908 24.6346 21.6488 24.6892 21.8852 24.801C22.1216 24.9128 22.3303 25.0787 22.4953 25.2863C22.8348 25.7848 23.1215 26.3195 23.3508 26.8811C23.7015 27.6409 24.0694 28.5098 24.4543 29.4876C24.8392 30.4654 25.2243 31.4741 25.6092 32.5138C25.9814 33.5122 26.332 34.4356 26.6229 35.2661" fill="white"/>
<path d="M16.1171 43.4163L15.9971 44.3866C15.9846 44.4907 15.9921 44.5963 16.0193 44.6974C16.0464 44.7985 16.0927 44.893 16.1554 44.9756C16.2181 45.0581 16.296 45.1269 16.3847 45.1782C16.4733 45.2295 16.5708 45.2622 16.6717 45.2743H47.2088C47.3111 45.2756 47.4127 45.2562 47.5079 45.2169C47.6029 45.1777 47.6896 45.1196 47.7629 45.0458C47.8362 44.972 47.8947 44.884 47.9351 44.7868C47.9755 44.6896 47.9969 44.5852 47.9982 44.4795C48.0009 44.4468 48.0009 44.414 47.9982 44.3815L47.8733 43.4111C47.8384 43.048 47.9437 42.6854 48.1665 42.4021C48.3893 42.1188 48.7114 41.9379 49.0626 41.8988C49.2349 41.8796 49.4091 41.8955 49.5755 41.9457C49.7418 41.9959 49.8969 42.0795 50.0319 42.1916C50.1669 42.3038 50.2793 42.4423 50.3625 42.5993C50.4457 42.7563 50.4981 42.9287 50.5168 43.1066L50.6368 44.0511C50.8716 46.1517 49.7173 47.9993 47.6385 47.9993H16.3369C14.2781 47.9993 13.1288 46.1517 13.3637 44.0511L13.4836 43.1066C13.5011 42.9297 13.5522 42.7579 13.634 42.6014C13.7159 42.4448 13.8268 42.3064 13.9605 42.1943C14.0942 42.0821 14.248 41.9982 14.4131 41.9476C14.5783 41.8969 14.7514 41.8803 14.9228 41.8988C15.2745 41.9392 15.5966 42.1212 15.8192 42.4052C16.0419 42.6893 16.1471 43.0526 16.1121 43.4163" fill="white"/>
</svg>
