<svg width="64" height="64" viewBox="0 0 64 64" fill="none" xmlns="http://www.w3.org/2000/svg">
<circle cx="32" cy="32" r="32" fill="#2366FE"/>
<path fill-rule="evenodd" clip-rule="evenodd" d="M32 64C49.6719 64 64 49.6732 64 32C64 14.3268 49.6719 0 32 0C14.3281 0 0 14.3268 0 32C0 49.6732 14.3281 64 32 64ZM32 58.6667C46.7266 58.6667 58.6667 46.7279 58.6667 32C58.6667 17.2721 46.7266 5.33333 32 5.33333C17.2734 5.33333 5.33333 17.2721 5.33333 32C5.33333 46.7279 17.2734 58.6667 32 58.6667Z" fill="white" fill-opacity="0.4"/>
<path d="M20.5166 16.0155H43.6331C45.8117 16.0155 46.896 17.7032 47.131 19.9328L47.2309 20.6451C47.2702 21.0137 47.1667 21.3836 46.943 21.6737C46.7192 21.9638 46.3934 22.1506 46.0366 22.1934C45.6865 22.2221 45.3396 22.107 45.0711 21.8732C44.8027 21.6394 44.6342 21.3056 44.6024 20.9444L44.5025 20.258C44.4076 19.4115 44.0628 18.7561 43.2283 18.7561H20.9264C20.0919 18.7561 19.7471 19.4115 19.6472 20.258L19.5572 20.9341C19.5255 21.2959 19.3562 21.63 19.0864 21.8631C18.8167 22.0962 18.4685 22.2094 18.118 22.1779C17.9411 22.1574 17.7699 22.101 17.6141 22.0121C17.4583 21.9231 17.321 21.8033 17.2101 21.6595C17.0991 21.5157 17.0168 21.3507 16.9676 21.174C16.9185 20.9972 16.9036 20.8123 16.9238 20.6296L17.0187 19.9173C17.2785 17.6929 18.3579 16 20.5166 16" fill="white"/>
<path d="M43.7842 37.3257C44.3495 37.3571 44.9038 37.1557 45.3256 36.7656C45.7473 36.3756 46.0021 35.8287 46.0341 35.245C46.0361 35.2067 46.0361 35.1683 46.0341 35.1301C46.0084 33.8445 44.875 33.014 43.6131 33.0095H41.0596C40.776 33.0095 40.504 32.8932 40.3034 32.6861C40.103 32.4789 39.9903 32.198 39.9903 31.9051C39.9903 31.6122 40.103 31.3313 40.3034 31.1241C40.504 30.9171 40.776 30.8007 41.0596 30.8007H42.7705C43.9211 30.7521 44.8066 30.0319 44.8621 28.9143C44.9177 27.7082 43.9168 26.807 42.6978 26.807H38.5574V37.3081H43.7842M46.9195 28.9143C46.9214 29.3751 46.8342 29.8316 46.6631 30.2572C46.492 30.6828 46.2403 31.0687 45.9229 31.3926L45.8587 31.4677L45.9443 31.5207C46.5698 31.8799 47.0952 32.3995 47.4698 33.0294C47.8444 33.6593 48.0556 34.3782 48.0829 35.1169C48.0979 36.2832 47.6655 37.4085 46.8803 38.2468C46.0949 39.0852 45.0204 39.5689 43.8912 39.5921H37.4752C37.1784 39.5874 36.8953 39.4617 36.6878 39.2425C36.4803 39.0231 36.365 38.728 36.3673 38.4213V25.8174C36.365 25.6628 36.3927 25.5092 36.4489 25.3659C36.505 25.2225 36.5883 25.0923 36.694 24.9827C36.7996 24.8732 36.9255 24.7866 37.0641 24.7281C37.2026 24.6697 37.3511 24.6404 37.5009 24.6422H42.6978C43.7867 24.6113 44.8429 25.0281 45.6345 25.8009C46.426 26.5737 46.8883 27.6394 46.9195 28.7641V28.9098" fill="white"/>
<path d="M26.6267 35.2798L26.6567 35.3682L26.6866 35.2798C26.9775 34.4493 27.3325 33.5127 27.7046 32.5275C28.0768 31.5423 28.4745 30.4644 28.8552 29.5013C29.2359 28.5383 29.608 27.6547 29.9588 26.8948C30.1897 26.334 30.4764 25.7996 30.8143 25.3C30.9788 25.0889 31.1883 24.9196 31.4264 24.8055C31.6645 24.6914 31.9248 24.6353 32.1872 24.6417H32.4482C32.7448 24.629 33.036 24.7261 33.2694 24.9157C33.4485 25.0691 33.5647 25.2869 33.5945 25.5253L35.2242 38.5578C35.2307 38.7021 35.2096 38.8463 35.1618 38.982C35.1142 39.1178 35.0408 39.2424 34.9461 39.3487C34.7255 39.5394 34.4419 39.6344 34.1549 39.6137C33.8617 39.6307 33.5718 39.5434 33.3335 39.3663C33.2282 39.292 33.1398 39.1951 33.0741 39.0823C33.0083 38.9695 32.967 38.8433 32.9529 38.7125C32.8973 38.2706 32.8502 37.7979 32.7989 37.2678C32.7475 36.7377 32.4739 34.4713 32.4012 33.8926C32.3285 33.3139 31.8793 29.625 31.721 28.2865V28.1715L31.1992 29.3025C31.0238 29.6913 30.8314 30.1551 30.6217 30.6986C30.4122 31.2419 30.194 31.8163 29.993 32.4259C29.7919 33.0355 28.7568 35.9867 28.7568 35.9867C28.6628 36.2561 28.4831 36.7996 28.329 37.3119C28.1751 37.8245 28.0168 38.2619 27.9784 38.3457C27.8019 38.7025 27.4954 38.9722 27.1265 39.0956C26.7576 39.219 26.3563 39.1861 26.0107 39.004C25.7296 38.8591 25.5004 38.6254 25.3563 38.337C25.3136 38.253 25.1682 37.8024 25.0014 37.3032C24.8346 36.804 24.6719 36.265 24.5736 35.9778C24.5736 35.9778 23.5684 33.0003 23.3417 32.4171C23.115 31.8339 22.914 31.2375 22.713 30.6897C22.5119 30.1419 22.3066 29.6824 22.1355 29.2937L21.6094 28.176V28.2908C21.4512 29.6162 20.9978 33.3094 20.925 33.897C20.8523 34.4847 20.5871 36.7289 20.5273 37.2546C20.4674 37.7803 20.4203 38.2663 20.369 38.6991C20.3549 38.8301 20.3135 38.9563 20.2478 39.0691C20.1821 39.1819 20.0936 39.2787 19.9883 39.353C19.7512 39.5291 19.463 39.6164 19.1713 39.6005C18.887 39.6202 18.6064 39.5251 18.3886 39.3353C18.2939 39.2292 18.2205 39.1045 18.1728 38.9687C18.1251 38.8329 18.1039 38.6888 18.1106 38.5446L19.7188 25.5253C19.7562 25.296 19.8733 25.0886 20.0482 24.9422C20.2774 24.742 20.5694 24.6352 20.8694 24.6417H21.1304C21.3903 24.6351 21.6483 24.6897 21.8847 24.8015C22.1211 24.9133 22.3298 25.0792 22.4948 25.2867C22.8343 25.7853 23.1211 26.32 23.3503 26.8816C23.701 27.6414 24.0689 28.5103 24.4538 29.4881C24.8387 30.4659 25.2238 31.4746 25.6087 32.5143C25.9809 33.5127 26.3316 34.4361 26.6224 35.2666" fill="white"/>
<path d="M16.1166 43.416L15.9966 44.3863C15.9841 44.4904 15.9916 44.596 16.0188 44.6971C16.0459 44.7982 16.0922 44.8927 16.1549 44.9753C16.2176 45.0578 16.2956 45.1266 16.3842 45.1779C16.4728 45.2292 16.5703 45.2619 16.6712 45.274H47.2083C47.3106 45.2753 47.4122 45.2558 47.5074 45.2166C47.6024 45.1774 47.6891 45.1193 47.7624 45.0455C47.8357 44.9717 47.8942 44.8837 47.9346 44.7865C47.9751 44.6893 47.9964 44.5849 47.9977 44.4792C48.0004 44.4465 48.0004 44.4137 47.9977 44.3812L47.8729 43.4108C47.8379 43.0477 47.9432 42.6851 48.166 42.4018C48.3888 42.1185 48.7109 41.9376 49.0622 41.8985C49.2344 41.8793 49.4086 41.8952 49.575 41.9454C49.7413 41.9956 49.8964 42.0792 50.0314 42.1913C50.1665 42.3035 50.2788 42.442 50.362 42.599C50.4452 42.756 50.4977 42.9284 50.5163 43.1063L50.6363 44.0508C50.8711 46.1514 49.7168 47.999 47.638 47.999H16.3364C14.2777 47.999 13.1283 46.1514 13.3632 44.0508L13.4831 43.1063C13.5006 42.9293 13.5517 42.7576 13.6335 42.6011C13.7154 42.4445 13.8263 42.3061 13.96 42.194C14.0937 42.0818 14.2475 41.9979 14.4126 41.9473C14.5778 41.8966 14.751 41.88 14.9223 41.8985C15.274 41.9389 15.5961 42.1209 15.8188 42.4049C16.0414 42.689 16.1466 43.0523 16.1116 43.416" fill="white"/>
</svg>
