<svg width="64" height="64" viewBox="0 0 64 64" fill="none" xmlns="http://www.w3.org/2000/svg">
<circle cx="32" cy="32" r="32" fill="#FDB913"/>
<path fill-rule="evenodd" clip-rule="evenodd" d="M32 64C49.6719 64 64 49.6732 64 32C64 14.3268 49.6719 0 32 0C14.3281 0 0 14.3268 0 32C0 49.6732 14.3281 64 32 64ZM32 58.6667C46.7266 58.6667 58.6667 46.7279 58.6667 32C58.6667 17.2721 46.7266 5.33333 32 5.33333C17.2734 5.33333 5.33333 17.2721 5.33333 32C5.33333 46.7279 17.2734 58.6667 32 58.6667Z" fill="white" fill-opacity="0.4"/>
<path d="M21.6237 22.9872C21.0914 22.9865 20.5691 22.8423 20.1119 22.5696C19.6546 22.2972 19.2793 21.9067 19.0254 21.4388C18.7715 20.9707 18.6484 20.4433 18.6691 19.9114C18.6898 19.3795 18.8535 18.8631 19.1431 18.4162L19.1761 18.3734L19.2318 18.3586L26.1958 16.7146V22.0036L26.0874 22.0287C24.5077 22.4086 22.6195 22.8413 22.2309 22.9241C22.0312 22.9663 21.8278 22.9875 21.6237 22.9872Z" fill="#231F20"/>
<path d="M21.6237 29.7499C20.8401 29.7503 20.0885 29.4392 19.534 28.8855C18.9796 28.3317 18.6677 27.5805 18.6669 26.7969C18.6653 26.2257 18.8308 25.6667 19.1431 25.1889L19.1761 25.1394L19.2318 25.1252L26.1958 23.4819V28.7705L26.0874 28.7988C24.5077 29.1778 22.6196 29.6154 22.2309 29.693C22.0308 29.7316 21.8275 29.7509 21.6237 29.7499Z" fill="#231F20"/>
<path d="M21.6237 36.5302C20.8399 36.5299 20.0883 36.2182 19.5339 35.6641C18.9795 35.11 18.6677 34.3585 18.6669 33.5745C18.6647 33.0037 18.8303 32.4444 19.1431 31.9669L19.1761 31.9135L26.1958 30.2592V35.5479L26.0874 35.5762C24.419 35.9777 22.5663 36.3962 22.2309 36.4703C22.031 36.5102 21.8276 36.5305 21.6237 36.5302Z" fill="#231F20"/>
<path d="M34.241 13.9952C34.241 13.1124 33.8903 12.2659 33.2661 11.6416C32.6418 11.0173 31.7951 10.6667 30.9123 10.6667C30.0295 10.6667 29.1829 11.0173 28.5586 11.6416C27.9344 12.2659 27.5837 13.1124 27.5837 13.9952L27.5892 41.6535C27.5921 44.0419 28.5419 46.3317 30.2302 48.0214C31.9185 49.7108 34.2078 50.6619 36.5962 50.6667C39.116 50.6667 46.0188 50.6545 46.0188 50.6545L46.0217 39.1158C46.0236 32.8116 46.0249 26.3948 46.0249 26.2486C46.0259 25.5313 45.8495 24.8249 45.5117 24.1922C45.174 23.5593 44.6852 23.0196 44.0889 22.621L35.691 16.9174C35.691 16.9174 35.6891 29.3003 35.6891 29.8695C35.6891 30.0595 35.6137 30.2417 35.4794 30.376C35.3451 30.5102 35.163 30.5856 34.973 30.5856C34.7831 30.5856 34.601 30.5102 34.4667 30.376C34.3324 30.2417 34.2569 30.0595 34.2569 29.8695C34.2569 29.7307 34.241 15.7061 34.241 13.9952Z" fill="#231F20"/>
</svg>
