<svg width="64" height="64" viewBox="0 0 64 64" fill="none" xmlns="http://www.w3.org/2000/svg">
<circle cx="32" cy="32" r="32" fill="#9747FF"/>
<path fill-rule="evenodd" clip-rule="evenodd" d="M32 64C49.6719 64 64 49.6732 64 32C64 14.3268 49.6719 0 32 0C14.3281 0 0 14.3268 0 32C0 49.6732 14.3281 64 32 64ZM32 58.6667C46.7266 58.6667 58.6667 46.7279 58.6667 32C58.6667 17.2721 46.7266 5.33333 32 5.33333C17.2734 5.33333 5.33333 17.2721 5.33333 32C5.33333 46.7279 17.2734 58.6667 32 58.6667Z" fill="white" fill-opacity="0.4"/>
<path d="M32.1812 27.7766L32.1832 27.7768C40.4245 28.2898 45.3333 32.034 45.3333 37.7962C45.3333 42.8755 40.9469 48 31.1447 48C26.6055 48 22.7292 47.5836 19.2928 46.7472V39.3494C22.4707 40.5098 25.8512 41.1188 29.2661 41.1466C32.8216 41.1466 34.9354 40.0525 34.9354 38.199C34.9354 35.9652 32.3798 35.8165 31.3944 35.7592L31.3799 35.7583C19.9037 35.0329 18.6666 28.7375 18.6666 26.0619C18.6666 21.4192 22.2191 16.0029 32.2413 16C38.0511 16 41.1882 16.8418 43.8854 17.7174L44.0228 17.7544V24.9395L43.9221 24.9111C42.8377 24.486 41.5639 24.0693 41.5639 24.0693C39.2791 23.4344 36.0779 22.7571 33.6097 22.7571C32.2046 22.7571 28.4566 22.7571 28.4566 25.3789C28.4566 27.5516 31.056 27.7086 32.1812 27.7766Z" fill="white"/>
</svg>
