<svg width="64" height="64" viewBox="0 0 64 64" fill="none" xmlns="http://www.w3.org/2000/svg">
<circle cx="32" cy="32" r="32" fill="#547FEF"/>
<path d="M32 53.3334V42.5021L45.3333 34.6667L32 53.3334Z" fill="#BDD0FB"/>
<path d="M32 53.3334V42.5021L18.6667 34.6667L32 53.3334Z" fill="#FFFFFD"/>
<path d="M32 40V26.6667L45.3333 32.52L32 40Z" fill="#7597F1"/>
<path d="M32 40V26.6667L18.6667 32.52L32 40Z" fill="#C5CDF2"/>
<path d="M45.3333 32L32 10.6667V26.0866L45.3333 32Z" fill="#BEC7FF"/>
<path d="M18.6667 32L32 10.6667V26.0866L18.6667 32Z" fill="#FFFCFF"/>
<path fill-rule="evenodd" clip-rule="evenodd" d="M32 64C49.6719 64 64 49.6732 64 32C64 14.3268 49.6719 0 32 0C14.3281 0 0 14.3268 0 32C0 49.6732 14.3281 64 32 64ZM32 58.6667C46.7266 58.6667 58.6667 46.7279 58.6667 32C58.6667 17.2721 46.7266 5.33333 32 5.33333C17.2734 5.33333 5.33333 17.2721 5.33333 32C5.33333 46.7279 17.2734 58.6667 32 58.6667Z" fill="white" fill-opacity="0.4"/>
</svg>
