<svg width="64" height="64" viewBox="0 0 64 64" fill="none" xmlns="http://www.w3.org/2000/svg">
<circle cx="32" cy="32" r="32" fill="#26A17B"/>
<path fill-rule="evenodd" clip-rule="evenodd" d="M32 64C49.6719 64 64 49.6732 64 32C64 14.3268 49.6719 0 32 0C14.3281 0 0 14.3268 0 32C0 49.6732 14.3281 64 32 64ZM32 58.6667C46.7266 58.6667 58.6667 46.7279 58.6667 32C58.6667 17.2721 46.7266 5.33333 32 5.33333C17.2734 5.33333 5.33333 17.2721 5.33333 32C5.33333 46.7279 17.2734 58.6667 32 58.6667Z" fill="white" fill-opacity="0.4"/>
<path d="M48 29.8629C48 27.8642 42.5096 26.1967 35.2135 25.812L35.2129 22.6275H44.323V16H19.4123V22.6275H28.5216V25.8276C21.3584 26.2387 16 27.8888 16 29.8629C16 31.8372 21.3584 33.4875 28.5216 33.8979V45.3333H35.2129V33.9135C42.5096 33.5296 48 31.8615 48 29.8629ZM31.9999 31.8318C24.1685 31.8318 17.8197 30.6312 17.8197 29.1493C17.8197 27.8945 22.3722 26.8411 28.5216 26.548V27.3033L28.5223 30.3983C29.631 30.4599 30.7962 30.4922 31.9999 30.4922C33.1083 30.4922 34.1847 30.4643 35.2136 30.4131V26.5365C41.4964 26.8117 46.1804 27.8761 46.1804 29.1493C46.1803 30.6312 39.8313 31.8318 31.9999 31.8318Z" fill="white"/>
</svg>
