<svg width="64" height="64" viewBox="0 0 64 64" fill="none" xmlns="http://www.w3.org/2000/svg">
<circle cx="32" cy="32" r="32" fill="#32BCAD"/>
<path fill-rule="evenodd" clip-rule="evenodd" d="M32 64C49.6719 64 64 49.6732 64 32C64 14.3268 49.6719 0 32 0C14.3281 0 0 14.3268 0 32C0 49.6732 14.3281 64 32 64ZM32 58.6667C46.7266 58.6667 58.6667 46.7279 58.6667 32C58.6667 17.2721 46.7266 5.33333 32 5.33333C17.2734 5.33333 5.33333 17.2721 5.33333 32C5.33333 46.7279 17.2734 58.6667 32 58.6667Z" fill="white" fill-opacity="0.4"/>
<path d="M42.4477 41.8937C41.7273 41.8956 41.0136 41.7548 40.348 41.4792C39.6823 41.2037 39.0779 40.7989 38.5697 40.2883L32.9696 34.6883C32.7716 34.4991 32.5084 34.3936 32.2346 34.3936C31.9608 34.3936 31.6976 34.4991 31.4996 34.6883L25.8785 40.3082C25.3703 40.8187 24.7659 41.2235 24.1002 41.4991C23.4346 41.7746 22.7209 41.9155 22.0005 41.9135H20.8968L27.9902 49.0069C29.0539 50.07 30.4962 50.6672 32.0001 50.6672C33.504 50.6672 34.9463 50.07 36.01 49.0069L43.1232 41.8937H42.4477ZM22.0005 22.0869C22.7209 22.0848 23.4346 22.2256 24.1003 22.5012C24.7659 22.7767 25.3704 23.1816 25.8785 23.6923L31.4984 29.3134C31.6936 29.5083 31.9581 29.6179 32.234 29.6179C32.5099 29.6179 32.7745 29.5083 32.9696 29.3134L38.5697 23.7133C39.0778 23.2025 39.6822 22.7975 40.3478 22.5217C41.0135 22.246 41.7272 22.1049 42.4477 22.1068H43.1221L36.01 14.9947C35.4833 14.468 34.8581 14.0501 34.17 13.7651C33.4819 13.48 32.7443 13.3333 31.9995 13.3333C31.2547 13.3333 30.5171 13.48 29.829 13.7651C29.1409 14.0501 28.5157 14.468 27.989 14.9947L20.8968 22.0869H22.0005Z" fill="white"/>
<path d="M49.0046 27.9926L44.7065 23.6946C44.6099 23.7344 44.5066 23.7554 44.402 23.7564H42.4479C41.4306 23.7589 40.4554 24.1626 39.7341 24.8799L34.1341 30.48C33.885 30.7299 33.589 30.928 33.263 31.063C32.937 31.1979 32.5875 31.267 32.2347 31.2663C31.5464 31.2663 30.858 31.0038 30.333 30.48L24.7131 24.8601C23.992 24.1423 23.0168 23.7382 21.9994 23.7354H19.5972C19.4984 23.7336 19.4008 23.7138 19.3091 23.6771L14.9947 27.9926C14.468 28.5192 14.0501 29.1445 13.7651 29.8326C13.48 30.5207 13.3333 31.2583 13.3333 32.0031C13.3333 32.7479 13.48 33.4854 13.7651 34.1736C14.0501 34.8617 14.468 35.4869 14.9947 36.0135L19.3091 40.3279C19.4012 40.2913 19.4992 40.2715 19.5984 40.2696H22.0018C23.0186 40.2668 23.9933 39.8631 24.7143 39.1461L30.3342 33.5262C31.3492 32.5112 33.1214 32.5112 34.1364 33.5262L39.7365 39.1263C40.4575 39.8433 41.4322 40.247 42.449 40.2498H44.4032C44.5105 40.2498 44.6132 40.2731 44.7077 40.3116L49.0058 36.0135C50.0692 34.9498 50.6666 33.5072 50.6666 32.0031C50.6666 30.4989 50.0681 29.0564 49.0046 27.9926Z" fill="white"/>
</svg>
