<svg width="64" height="64" viewBox="0 0 64 64" fill="none" xmlns="http://www.w3.org/2000/svg">
<circle cx="32" cy="32" r="32" fill="#D80027"/>
<path fill-rule="evenodd" clip-rule="evenodd" d="M48 26.4808L41.2977 20.4231L16 16L29.4046 48L48 26.4615V26.4808ZM35.6694 27.1538L40.7011 23.1731L43.6047 25.7885L35.6495 27.1538H35.6694ZM22.6426 19.5962L31.9901 26.9423L37.9167 22.2692L22.6426 19.5769V19.5962ZM20.9323 21.3269L30.7968 29.1154L29.2654 41.2308L20.9124 21.3269H20.9323ZM31.7514 41.5192L33.2231 30.0192L43.1871 28.2885L31.7514 41.5385V41.5192Z" fill="white"/>
<path fill-rule="evenodd" clip-rule="evenodd" d="M32 64C49.6719 64 64 49.6732 64 32C64 14.3268 49.6719 0 32 0C14.3281 0 0 14.3268 0 32C0 49.6732 14.3281 64 32 64ZM32 58.6667C46.7266 58.6667 58.6667 46.7279 58.6667 32C58.6667 17.2721 46.7266 5.33333 32 5.33333C17.2734 5.33333 5.33333 17.2721 5.33333 32C5.33333 46.7279 17.2734 58.6667 32 58.6667Z" fill="white" fill-opacity="0.4"/>
</svg>
