<svg width="64" height="64" viewBox="0 0 64 64" fill="none" xmlns="http://www.w3.org/2000/svg">
<circle cx="32" cy="32" r="32" fill="white"/>
<path fill-rule="evenodd" clip-rule="evenodd" d="M32 64C49.6719 64 64 49.6732 64 32C64 14.3268 49.6719 0 32 0C14.3281 0 0 14.3268 0 32C0 49.6732 14.3281 64 32 64ZM32 58.6667C46.7266 58.6667 58.6667 46.7279 58.6667 32C58.6667 17.2721 46.7266 5.33333 32 5.33333C17.2734 5.33333 5.33333 17.2721 5.33333 32C5.33333 46.7279 17.2734 58.6667 32 58.6667Z" fill="#999999" fill-opacity="0.4"/>
<path d="M53.3333 32.9214C53.3333 31.407 53.2017 29.8925 52.9383 28.5099H32.4608V36.8721H44.181C43.6543 39.5716 42.1399 41.942 39.8354 43.4565V48.9215H46.8148C50.9629 45.1025 53.3333 39.5716 53.3333 32.9214Z" fill="#4285F4"/>
<path d="M32.4607 54.1907C38.3209 54.1907 43.2591 52.2813 46.8805 48.9232L39.8352 43.4583C37.86 44.775 35.3578 45.5652 32.4607 45.5652C26.7982 45.5652 21.9916 41.7463 20.2796 36.6105H13.0368V42.2071C16.5924 49.3183 23.9669 54.1907 32.4607 54.1907Z" fill="#34A853"/>
<path d="M20.214 36.6113C19.7531 35.2945 19.5556 33.9117 19.5556 32.4632C19.5556 31.0146 19.819 29.6318 20.214 28.3149V22.7183H12.9712C11.5227 25.6154 10.6667 28.9076 10.6667 32.4632C10.6667 35.9529 11.5227 39.3109 12.9712 42.208L20.214 36.6113Z" fill="#FABB05"/>
<path d="M32.4607 19.2922C35.6871 19.2922 38.5184 20.4116 40.8229 22.5186L47.0123 16.3293C43.2592 12.8395 38.3209 10.6667 32.4607 10.6667C23.9669 10.6667 16.5924 15.5391 13.0368 22.6503L20.2796 28.247C21.9257 23.1112 26.7982 19.2922 32.4607 19.2922Z" fill="#E94235"/>
</svg>
