<svg width="64" height="64" viewBox="0 0 64 64" fill="none" xmlns="http://www.w3.org/2000/svg">
<circle cx="32" cy="32" r="32" fill="#252525"/>
<path d="M45.1076 39.0789C44.5878 40.2501 43.9725 41.3282 43.2596 42.3194C42.2879 43.6707 41.4923 44.606 40.8791 45.1254C39.9286 45.978 38.9102 46.4146 37.8197 46.4394C37.0368 46.4394 36.0926 46.2222 34.9936 45.7814C33.8909 45.3427 32.8776 45.1254 31.9511 45.1254C30.9794 45.1254 29.9372 45.3427 28.8225 45.7814C27.7061 46.2222 26.8067 46.4518 26.119 46.4746C25.0733 46.5181 24.0309 46.069 22.9904 45.1254C22.3263 44.5605 21.4957 43.5921 20.5006 42.2201C19.433 40.755 18.5553 39.0561 17.8676 37.1193C17.1312 35.0272 16.762 33.0013 16.762 31.0401C16.762 28.7934 17.2598 26.8557 18.2567 25.2319C19.0403 23.9276 20.0827 22.8988 21.3873 22.1435C22.6919 21.3882 24.1015 21.0033 25.6196 20.9787C26.4502 20.9787 27.5395 21.2293 28.8931 21.7218C30.2429 22.2159 31.1096 22.4665 31.4896 22.4665C31.7737 22.4665 32.7365 22.1735 34.3687 21.5893C35.9123 21.0476 37.215 20.8233 38.2822 20.9116C41.174 21.1392 43.3466 22.2511 44.7915 24.2542C42.2052 25.7826 40.9258 27.9233 40.9512 30.6694C40.9746 32.8085 41.7702 34.5885 43.3339 36.0018C44.0425 36.6578 44.8339 37.1648 45.7144 37.5249C45.5235 38.0649 45.3219 38.5823 45.1076 39.0789ZM38.4753 13.6243C38.4753 15.3009 37.8472 16.8663 36.5954 18.3153C35.0848 20.0377 33.2576 21.0331 31.2762 20.876C31.2509 20.6749 31.2363 20.4632 31.2363 20.2407C31.2363 18.6312 31.9547 16.9087 33.2305 15.5004C33.8674 14.7873 34.6775 14.1944 35.6598 13.7214C36.64 13.2555 37.5672 12.9978 38.4392 12.9537C38.4646 13.1778 38.4753 13.402 38.4753 13.6243V13.6243Z" fill="white"/>
<path fill-rule="evenodd" clip-rule="evenodd" d="M32 64C49.6719 64 64 49.6732 64 32C64 14.3268 49.6719 0 32 0C14.3281 0 0 14.3268 0 32C0 49.6732 14.3281 64 32 64ZM32 58.6667C46.7266 58.6667 58.6667 46.7279 58.6667 32C58.6667 17.2721 46.7266 5.33333 32 5.33333C17.2734 5.33333 5.33333 17.2721 5.33333 32C5.33333 46.7279 17.2734 58.6667 32 58.6667Z" fill="white" fill-opacity="0.4"/>
</svg>
