<svg width="64" height="64" viewBox="0 0 64 64" fill="none" xmlns="http://www.w3.org/2000/svg">
<circle cx="32" cy="32" r="32" fill="#1C1C1C"/>
<path d="M21.747 32L17.5604 36.1922L13.3333 32L17.5588 27.7704L21.747 32ZM31.9821 21.7551L39.193 28.9729L43.42 24.7449L31.9821 13.3333L20.5442 24.7822L24.7712 29.0102L31.9821 21.7551ZM46.4054 27.7704L42.2172 32L46.4427 36.2295L50.6666 32L46.4054 27.7704ZM31.9821 42.2449L24.7712 34.9898L20.5442 39.2193L31.9821 50.6666L43.42 39.2178L39.193 34.9898L31.9821 42.2449ZM31.9821 36.1938L36.2076 31.9626L31.9821 27.772L27.7566 32L31.9821 36.1922V36.1938Z" fill="#F0B90B"/>
<path fill-rule="evenodd" clip-rule="evenodd" d="M32 64C49.6719 64 64 49.6732 64 32C64 14.3268 49.6719 0 32 0C14.3281 0 0 14.3268 0 32C0 49.6732 14.3281 64 32 64ZM32 58.6667C46.7266 58.6667 58.6667 46.7279 58.6667 32C58.6667 17.2721 46.7266 5.33333 32 5.33333C17.2734 5.33333 5.33333 17.2721 5.33333 32C5.33333 46.7279 17.2734 58.6667 32 58.6667Z" fill="white" fill-opacity="0.4"/>
</svg>
