<svg width="64" height="64" viewBox="0 0 64 64" fill="none" xmlns="http://www.w3.org/2000/svg">
<circle cx="32" cy="32" r="32" fill="black"/>
<path fill-rule="evenodd" clip-rule="evenodd" d="M32 64C49.6719 64 64 49.6732 64 32C64 14.3268 49.6719 0 32 0C14.3281 0 0 14.3268 0 32C0 49.6732 14.3281 64 32 64ZM32 58.6667C46.7266 58.6667 58.6667 46.7279 58.6667 32C58.6667 17.2721 46.7266 5.33333 32 5.33333C17.2734 5.33333 5.33333 17.2721 5.33333 32C5.33333 46.7279 17.2734 58.6667 32 58.6667Z" fill="white" fill-opacity="0.4"/>
<path d="M31.3537 47.2659C31.3505 47.2615 31.3463 47.258 31.3414 47.2556C31.3365 47.2532 31.3311 47.2521 31.3257 47.2523C31.3203 47.2525 31.315 47.2541 31.3103 47.2568C31.3056 47.2595 31.3017 47.2633 31.2988 47.268C30.5963 48.4553 29.3297 49.2558 28.0022 49.6924C25.9834 50.3571 23.8519 50.5842 21.7359 50.4691C20.3617 50.3944 18.8779 49.8448 17.866 48.897C16.3708 47.4982 15.721 45.3869 16.1111 43.3855C17.3248 37.1429 18.3326 30.806 19.2246 24.665C19.3853 23.5583 19.5212 22.4096 19.6323 21.2192C19.7192 20.288 19.7444 19.4698 19.7078 18.7647C19.6788 18.2109 19.6754 17.7318 19.6974 17.3274C19.7802 15.8176 20.8832 14.7184 22.2625 14.2787C22.9365 14.0637 23.6549 13.9134 24.4179 13.8276C26.5563 13.5864 28.1164 13.4457 29.098 13.4056C31.3278 13.3133 33.6818 13.2801 36.0141 13.4865C39.3594 13.781 42.8588 14.8273 45.1446 17.399C46.3055 18.7056 47.2026 20.2755 47.601 21.9803C47.9894 23.645 48.0942 25.2679 47.9156 26.8489C47.5389 30.1983 45.7012 32.9836 43.042 35.0306C43.0228 35.0453 43.009 35.0659 43.0025 35.0892C42.9959 35.1126 42.9971 35.1375 43.0058 35.1603C43.3934 36.1516 43.8025 37.1312 44.233 38.099C45.1401 40.137 46.1024 42.211 47.1198 44.3209C47.5703 45.2555 47.5827 46.2033 47.1571 47.1643C46.8074 47.9534 46.2445 48.4791 45.4467 48.8742C44.3892 49.3982 43.3724 49.7629 42.3963 49.9682C41.2188 50.2157 39.8761 50.3827 38.3681 50.4691C35.7771 50.6174 32.8613 49.4508 31.3537 47.2659ZM31.7313 35.6435C32.7261 38.509 33.6708 41.2514 34.5655 43.8708C34.8469 44.6942 35.2122 45.3807 35.8516 45.9583C36.6743 46.7018 37.5372 46.7909 38.5885 46.7007C39.7302 46.6019 40.839 46.4349 41.9152 46.1999C42.5719 46.0568 43.1617 45.8508 43.6845 45.5818C43.6919 45.578 43.6983 45.5724 43.7031 45.5656C43.7078 45.5587 43.7109 45.5509 43.7119 45.5427C43.7129 45.5345 43.7119 45.5262 43.7089 45.5185C43.706 45.5109 43.7011 45.5042 43.6949 45.4989C43.4804 45.3122 43.2986 45.0948 43.1496 44.8466C42.7412 44.165 42.3704 43.4636 42.0373 42.7426C40.908 40.2953 39.8578 37.6117 38.8865 34.6915C38.7665 34.3307 38.6558 33.9774 38.5544 33.6318C38.5447 33.5986 38.5544 33.5726 38.5833 33.554C39.2652 33.1216 39.975 32.7047 40.599 32.1966C41.3909 31.553 42.0328 30.9318 42.5246 30.3331C44.1005 28.4179 44.4989 26.177 44.1295 23.7038C44.0157 22.9413 43.8332 22.2907 43.5821 21.7522C42.8102 20.0993 41.5468 18.8818 39.8623 18.186C39.0469 17.8487 38.2243 17.6105 37.3944 17.4716C36.3783 17.3015 35.3146 17.1888 34.2033 17.1335C32.2311 17.0353 30.3514 17.0561 28.564 17.1957C26.8554 17.3298 25.4123 17.4778 24.2347 17.6396C23.985 17.6741 23.7463 17.7208 23.5187 17.7795C23.4936 17.7859 23.4715 17.8009 23.456 17.8218C23.4406 17.8428 23.4328 17.8685 23.4339 17.8946C23.5466 20.0484 23.3366 22.223 23.0376 24.3913C22.1711 30.667 21.1637 36.8834 20.0151 43.0402C19.9272 43.5089 19.8837 44.0979 19.9323 44.522C20.1465 46.3834 21.6024 46.8293 23.2404 46.7215C24.6159 46.6302 25.8782 46.4059 27.0275 46.0485C27.442 45.9192 27.8073 45.7412 28.1232 45.5144C28.1653 45.4833 28.1691 45.4484 28.1346 45.4097C27.8294 45.0654 27.8139 44.2742 27.8139 43.8096C27.8139 43.1812 27.8546 42.548 27.936 41.9099C28.2015 39.8208 28.513 37.7285 28.8703 35.6331C28.8758 35.5985 28.8962 35.5813 28.9314 35.5813H31.6444C31.6879 35.5813 31.7169 35.602 31.7313 35.6435Z" fill="white"/>
<path d="M31.6444 35.5812H28.9314C28.8962 35.5812 28.8758 35.5985 28.8703 35.633C28.513 37.7284 28.2015 39.8207 27.936 41.9098C27.8546 42.5479 27.8139 43.1811 27.8139 43.8096C27.8139 44.2741 27.8294 45.0653 28.1346 45.4096C28.1691 45.4483 28.1653 45.4832 28.1232 45.5143C27.8073 45.7411 27.442 45.9191 27.0275 46.0484C25.8782 46.4058 24.6159 46.6301 23.2404 46.7214C21.6024 46.8292 20.1465 46.3833 19.9323 44.5219C19.8837 44.0978 19.9271 43.5088 20.0151 43.0401C21.1636 36.8833 22.1711 30.667 23.0375 24.3912C23.3366 22.2229 23.5466 20.0483 23.4338 17.8946C23.4328 17.8684 23.4406 17.8427 23.456 17.8217C23.4715 17.8008 23.4936 17.7858 23.5187 17.7794C23.7463 17.7207 23.985 17.674 24.2347 17.6395C25.4123 17.4777 26.8554 17.3297 28.564 17.1956C30.3514 17.056 32.2311 17.0352 34.2033 17.1334C35.3146 17.1887 36.3783 17.3014 37.3944 17.4715C38.2243 17.6104 39.0469 17.8486 39.8623 18.1859C41.5468 18.8818 42.8102 20.0992 43.5821 21.7521C43.8332 22.2906 44.0157 22.9412 44.1295 23.7037C44.4989 26.1769 44.1005 28.4178 42.5246 30.333C42.0328 30.9317 41.3909 31.5529 40.599 32.1965C39.975 32.7046 39.2652 33.1215 38.5833 33.5539C38.5544 33.5726 38.5447 33.5985 38.5544 33.6317C38.6558 33.9773 38.7665 34.3306 38.8865 34.6914C39.8578 37.6116 40.908 40.2952 42.0373 42.7425C42.3704 43.4635 42.7412 44.1649 43.1496 44.8465C43.2986 45.0947 43.4804 45.3121 43.6949 45.4988C43.7011 45.5041 43.706 45.5108 43.7089 45.5184C43.7119 45.5261 43.7129 45.5344 43.7119 45.5426C43.7109 45.5508 43.7078 45.5586 43.7031 45.5655C43.6983 45.5723 43.6919 45.5779 43.6845 45.5817C43.1617 45.8507 42.5719 46.0567 41.9152 46.1998C40.839 46.4348 39.7302 46.6018 38.5885 46.7006C37.5372 46.7908 36.6742 46.7017 35.8516 45.9582C35.2122 45.3806 34.8469 44.6941 34.5655 43.8707C33.6708 41.2513 32.7261 38.5089 31.7313 35.6434C31.7169 35.6019 31.6879 35.5812 31.6444 35.5812ZM36.4104 23.4963C35.9975 22.2229 34.8976 21.5011 33.5887 21.2948C32.7554 21.1627 31.9324 21.1285 31.1198 21.1921C31.1084 21.193 31.0976 21.1977 31.0891 21.2056C31.0807 21.2135 31.0751 21.2241 31.0733 21.2357L29.5398 31.3109C29.5336 31.3496 29.5501 31.37 29.5895 31.3721C30.5504 31.4184 31.432 31.3828 32.2342 31.2653C34.6524 30.9096 35.9065 29.1395 36.4104 26.881C36.666 25.7361 36.7581 24.5685 36.4104 23.4963Z" fill="black"/>
<path d="M33.5887 21.2947C34.8976 21.5011 35.9976 22.2228 36.4104 23.4962C36.7581 24.5685 36.666 25.7361 36.4104 26.8809C35.9065 29.1394 34.6524 30.9096 32.2343 31.2652C31.432 31.3828 30.5504 31.4184 29.5895 31.3721C29.5502 31.37 29.5336 31.3496 29.5398 31.3109L31.0733 21.2356C31.0751 21.2241 31.0807 21.2135 31.0892 21.2056C31.0976 21.1977 31.1084 21.1929 31.1198 21.1921C31.9325 21.1285 32.7554 21.1627 33.5887 21.2947Z" fill="white"/>
</svg>
