<svg width="64" height="64" viewBox="0 0 64 64" fill="none" xmlns="http://www.w3.org/2000/svg">
<circle cx="32" cy="32" r="32" fill="#0D4496"/>
<path fill-rule="evenodd" clip-rule="evenodd" d="M32 64C49.6719 64 64 49.6732 64 32C64 14.3268 49.6719 0 32 0C14.3281 0 0 14.3268 0 32C0 49.6732 14.3281 64 32 64ZM32 58.6667C46.7266 58.6667 58.6667 46.7279 58.6667 32C58.6667 17.2721 46.7266 5.33333 32 5.33333C17.2734 5.33333 5.33333 17.2721 5.33333 32C5.33333 46.7279 17.2734 58.6667 32 58.6667Z" fill="white" fill-opacity="0.4"/>
<path fill-rule="evenodd" clip-rule="evenodd" d="M19.1841 24.6297L22.3281 16L25.7232 16.0014L20.6779 28.6892H17.2829L14.4041 17.7705C16.4379 18.8304 18.2604 20.9642 18.8416 22.9279L19.1841 24.6297ZM27.0167 16L25.0093 28.7019H28.2181L30.2243 16H27.0167ZM36.6956 21.1736C35.5742 20.6106 34.8867 20.2306 34.8867 19.6549C34.9004 19.1312 35.4681 18.5949 36.7354 18.5949C37.7781 18.5683 38.5442 18.8174 39.1256 19.0652L39.4167 19.1974L39.8531 16.5397C39.2192 16.2906 38.2142 16.0162 36.9729 16.0162C33.8042 16.0162 31.5728 17.6913 31.5592 20.0871C31.5329 21.855 33.1566 22.8361 34.3716 23.4246C35.6129 24.0284 36.0354 24.4198 36.0354 24.9561C36.0217 25.7796 35.0318 26.1596 34.1081 26.1596C32.8279 26.1596 32.1404 25.964 31.0968 25.5051L30.6743 25.3094L30.2254 28.0712C30.9793 28.4119 32.3654 28.7118 33.8043 28.727C37.1719 28.727 39.3632 27.0773 39.3907 24.524C39.4017 23.1234 38.5456 22.0506 36.6956 21.1736ZM45.5966 16.0385H48.0792L50.6667 28.7113H47.6964L47.2153 26.1809H43.4477L42.5202 28.701H39.1527L43.9189 17.0604C44.2503 16.2623 44.8317 16.0385 45.5966 16.0385ZM44.3821 23.6384C44.4506 23.6319 45.6743 19.5242 45.6743 19.5242L46.6518 23.6384H44.3821Z" fill="white"/>
<path d="M17.7843 17.6394C17.5393 16.6707 16.7579 16.0176 15.6968 16.0036H10.7179L10.6667 16.2386C14.5506 17.2122 17.8106 20.2077 18.8679 23.0255L17.7843 17.6394Z" fill="#FAA61A"/>
<path d="M35.9927 42.9425C35.9927 48.4285 31.518 52.8735 25.9964 52.8735C20.4747 52.8735 16 48.4275 16 42.9425C16 37.4575 20.4757 33.0115 25.9964 33.0115C31.517 33.0115 35.9927 37.4575 35.9927 42.9425Z" fill="#E7173B"/>
<path d="M38.0008 33.0115C35.7589 33.0115 33.6949 33.7533 32.0271 34.9919L32.0351 34.9929C32.3632 35.3076 32.7251 35.5292 33.0041 35.8914L30.9243 35.9244C30.5982 36.251 30.3013 36.6066 30.0212 36.976H33.689C33.968 37.3087 34.2259 37.5978 34.46 37.9651H29.3563C29.1694 38.2849 28.9963 38.6137 28.8453 38.9553H35.0409C35.203 39.2958 35.3479 39.5531 35.471 39.9136H28.4784C28.3675 40.2563 28.2725 40.6068 28.2003 40.9643H35.7639C35.838 41.3079 35.8949 41.6257 35.9338 41.9495H28.0505C28.0175 42.2763 28.0004 42.6079 28.0004 42.9427H35.9909C35.9909 43.2942 35.9658 43.6199 35.9299 43.9357H28.0505C28.0844 44.2724 28.1343 44.603 28.2003 44.9289H35.7519C35.6739 45.2507 35.5838 45.5744 35.4709 45.9101H28.4553C28.5612 46.2497 28.6905 46.5793 28.8314 46.9011H35.0409C34.869 47.2627 34.674 47.5517 34.4591 47.8902H29.3384C29.5406 48.2378 29.7633 48.5694 30.0053 48.8874L33.6891 48.9419C33.375 49.3163 32.9722 49.5417 32.6051 49.8694C32.6251 49.8854 32.0181 49.8676 30.8231 49.8486C32.641 51.7118 35.1819 52.8736 38.0007 52.8736C43.5233 52.8736 48 48.4275 48 42.9427C48 37.4578 43.5243 33.0115 38.0008 33.0115Z" fill="#F59B21"/>
</svg>
