<svg width="64" height="64" viewBox="0 0 64 64" fill="none" xmlns="http://www.w3.org/2000/svg">
<circle cx="32" cy="32" r="32" fill="#FFB600"/>
<path d="M45.2567 28.342C45.867 24.4192 42.7606 22.3103 38.5131 20.9035L39.8909 15.5895L36.5268 14.7834L35.1854 19.9574C34.301 19.7455 33.3926 19.5456 32.49 19.3475L33.8411 14.1394L30.4789 13.3333L29.1001 18.6455C28.368 18.4852 27.6494 18.3267 26.9518 18.1599L26.9557 18.1434L22.3162 17.0295L21.4213 20.4843C21.4213 20.4843 23.9173 21.0344 23.8646 21.0684C25.2271 21.3955 25.4734 22.2624 25.4322 22.9497L23.8627 29.0035C23.9566 29.0265 24.0783 29.0597 24.2124 29.1113C24.1003 29.0846 23.9806 29.0551 23.857 29.0265L21.657 37.507C21.4903 37.905 21.0677 38.502 20.1153 38.2753C20.1489 38.3223 17.6701 37.6885 17.6701 37.6885L16 41.3911L20.3779 42.4405C21.1923 42.6367 21.9905 42.8422 22.7761 43.0356L21.3839 48.4104L24.7442 49.2165L26.123 43.8989C27.0409 44.1384 27.932 44.3595 28.804 44.5677L27.43 49.8605L30.7941 50.6666L32.1863 45.302C37.9229 46.3458 42.2365 45.9248 44.0522 40.936C45.5154 36.9192 43.9794 34.6022 40.9612 33.0912C43.1592 32.6039 44.815 31.2137 45.2567 28.342ZM37.5703 38.7056C36.5306 42.7224 29.4967 40.5509 27.2163 40.0064L29.0636 32.8858C31.3441 33.433 38.6568 34.5165 37.5703 38.7056ZM38.6108 28.284C37.6622 31.9378 31.8078 30.0814 29.9087 29.6263L31.5836 23.1681C33.4827 23.6232 39.5987 24.4726 38.6108 28.284Z" fill="white"/>
<path fill-rule="evenodd" clip-rule="evenodd" d="M32 64C49.6719 64 64 49.6732 64 32C64 14.3268 49.6719 0 32 0C14.3281 0 0 14.3268 0 32C0 49.6732 14.3281 64 32 64ZM32 58.6667C46.7266 58.6667 58.6667 46.7279 58.6667 32C58.6667 17.2721 46.7266 5.33333 32 5.33333C17.2734 5.33333 5.33333 17.2721 5.33333 32C5.33333 46.7279 17.2734 58.6667 32 58.6667Z" fill="white" fill-opacity="0.4"/>
</svg>
