<svg width="64" height="64" viewBox="0 0 64 64" fill="none" xmlns="http://www.w3.org/2000/svg">
<circle cx="32" cy="32" r="32" fill="#2775CA"/>
<path d="M40 36.7135C40 32.0663 37.4925 30.473 32.4775 29.8093C28.8955 29.278 28.1791 28.216 28.1791 26.3568C28.1791 24.4977 29.3732 23.3029 31.7611 23.3029C33.9104 23.3029 35.1046 24.0996 35.7014 26.0913C35.8211 26.4896 36.1793 26.7551 36.5375 26.7551H38.4477C38.9254 26.7551 39.2836 26.3568 39.2836 25.826V25.6929C38.8059 22.7717 36.6566 20.5146 33.9104 20.2493V17.0626C33.9104 16.5312 33.5521 16.1328 32.9554 16H31.1643C30.6866 16 30.3284 16.3983 30.2087 17.0626V20.1162C26.6266 20.6476 24.3582 23.3029 24.3582 26.6227C24.3582 31.0044 26.7462 32.7302 31.7611 33.3944C35.1046 34.0582 36.1793 34.8549 36.1793 36.9794C36.1793 39.1039 34.5073 40.5644 32.2389 40.5644C29.1341 40.5644 28.0595 39.1035 27.7013 37.1119C27.5821 36.5811 27.2239 36.3152 26.8657 36.3152H24.8357C24.3582 36.3152 24 36.7135 24 37.2449V37.3778C24.4775 40.6969 26.388 43.0869 30.3284 43.7511V46.9378C30.3284 47.4686 30.6866 47.867 31.2834 48H33.0745C33.5521 48 33.9104 47.6017 34.03 46.9378V43.7511C37.612 43.0869 40 40.2986 40 36.7135Z" fill="white"/>
<path d="M25.9723 49.2643C16.7528 45.8116 12.0248 35.0832 15.4527 25.5879C17.2257 20.4087 21.1262 16.4627 25.9723 14.613C26.4451 14.3664 26.6815 13.9965 26.6815 13.3797V11.6534C26.6815 11.1601 26.4451 10.7901 25.9723 10.667C25.854 10.667 25.6177 10.667 25.4994 10.7901C14.2706 14.4895 8.12425 26.9445 11.6702 38.6593C13.7978 45.5648 18.8804 50.8674 25.4994 53.0871C25.9723 53.3337 26.4451 53.0871 26.5632 52.5938C26.6815 52.4706 26.6815 52.3472 26.6815 52.1006V50.3741C26.6815 50.0042 26.3269 49.511 25.9723 49.2643ZM38.5013 10.7901C38.0285 10.5436 37.5556 10.7901 37.4375 11.2835C37.3193 11.4069 37.3193 11.53 37.3193 11.7768V13.5031C37.3193 13.9965 37.6739 14.4895 38.0285 14.7364C47.2479 18.189 51.9759 28.9174 48.548 38.4127C46.775 43.5919 42.8745 47.5379 38.0285 49.3877C37.5556 49.6342 37.3193 50.0042 37.3193 50.6209V52.3472C37.3193 52.8405 37.5556 53.2105 38.0285 53.3337C38.1467 53.3337 38.383 53.3337 38.5013 53.2105C49.73 49.511 55.8764 37.0561 52.3305 25.3413C50.2029 18.3124 45.0021 13.0098 38.5013 10.7901Z" fill="white"/>
<path fill-rule="evenodd" clip-rule="evenodd" d="M32 64C49.6719 64 64 49.6732 64 32C64 14.3268 49.6719 0 32 0C14.3281 0 0 14.3268 0 32C0 49.6732 14.3281 64 32 64ZM32 58.6667C46.7266 58.6667 58.6667 46.7279 58.6667 32C58.6667 17.2721 46.7266 5.33333 32 5.33333C17.2734 5.33333 5.33333 17.2721 5.33333 32C5.33333 46.7279 17.2734 58.6667 32 58.6667Z" fill="white" fill-opacity="0.4"/>
</svg>
