<svg width="160" height="64" viewBox="0 0 160 64" fill="none" xmlns="http://www.w3.org/2000/svg">
<path d="M51.155 35.8354C53.0727 37.9016 55.4606 38.9408 58.3062 38.9408C59.494 38.9408 60.8426 38.6315 62.4015 38.0129L62.6613 33.4599L49.3486 32.9402C49.7569 34.029 50.3755 34.9569 51.155 35.8354ZM28.365 32.2103L26.8556 38.4831H33.8955L34.4646 35.2662H39.0795L39.5991 38.4831H46.639L45.4513 32.8412L28.365 32.2103ZM35.3554 12.5257L30.8024 31.5916L47.8515 32.2103L43.6944 12.5257H35.3554ZM37.7928 29.2038L38.4609 25.2198L38.931 22.1639C38.931 22.1144 38.9805 21.9535 38.9805 21.6937C39.03 21.4339 39.0795 20.9637 39.1414 20.2956C39.1908 19.9368 39.2403 19.6275 39.2403 19.3677C39.2403 19.1079 39.2898 18.848 39.3393 18.5882L39.5496 20.9761C39.5991 21.4957 39.6486 21.8545 39.7105 22.2133C39.76 22.5227 39.76 22.7825 39.8095 22.9928C40.0198 24.6507 40.1188 25.6405 40.1683 25.8385C40.1683 25.9993 40.2178 26.1478 40.2178 26.3086L40.6879 29.2656L37.7928 29.2038ZM59.8033 31.2823C59.2342 30.973 58.764 30.5523 58.4547 29.9832C58.0464 29.3646 57.7866 28.6346 57.6257 27.917C57.4154 27.0386 57.3164 26.0983 57.3164 25.1703C57.3164 23.0423 57.7247 21.3844 58.5042 20.1966C59.2836 19.0089 60.3724 18.3779 61.7705 18.3779C62.8593 18.3779 63.8986 18.8975 64.876 19.875V12.6247C63.7872 12.2164 62.6489 12.0061 61.5107 12.0061C58.1454 12.0061 55.3987 13.1939 53.382 15.6312C51.3653 18.0686 50.326 21.2854 50.326 25.2693C50.326 28.016 50.7962 30.4039 51.6746 32.3092L64.9873 32.8289L65.1482 30.0327C63.9604 31.1215 62.7603 31.6906 61.622 31.6906C61.0034 31.7401 60.3724 31.5916 59.8033 31.2823ZM89.596 24.1806C89.9548 24.7992 90.3755 25.3683 90.8951 25.8879C91.4643 26.5066 92.1324 27.0262 92.8129 27.5459L93.9016 28.4243C94.7306 29.0429 95.0894 29.7234 95.0894 30.3915C95.0894 30.8617 94.8791 31.2699 94.5203 31.5793C94.112 31.8886 93.5923 32.0494 93.0727 32.0494C91.5138 32.0494 90.0662 31.1215 88.7176 29.3027V33.7568L100.843 34.227C101.511 32.9279 101.882 31.4308 101.882 29.7729C101.882 28.3253 101.573 27.0262 100.954 25.9374C100.335 24.8487 99.296 23.7599 97.8484 22.7206L96.7597 21.8917C95.8317 21.2235 95.3616 20.5431 95.3616 19.875C95.3616 19.4667 95.5719 19.046 95.8812 18.7862C96.24 18.4769 96.7102 18.316 97.1803 18.316C97.8484 18.316 98.5784 18.5759 99.2465 19.046C100.026 19.6151 100.645 20.2832 101.164 21.0627V13.3052C99.494 12.4144 97.8856 12.0061 96.2277 12.0061C94.4089 12.0061 92.8624 12.5752 91.5633 13.664C91.0931 14.0228 90.6848 14.493 90.326 15.0126C89.1878 16.5715 88.5691 18.4274 88.5691 20.3946C88.5691 21.0627 88.6186 21.7432 88.7795 22.3618C89.0269 22.9928 89.2867 23.6114 89.596 24.1806ZM8 38.4831H14.8419V31.6906L8 31.4308V38.4831ZM20.4838 31.2205L27.3257 31.4803V12.5257H20.4838V21.4834H17.2174V12.5257H10.4374V30.8122L17.2793 31.072V27.6572H20.5456L20.4838 31.2205ZM18.0464 38.4831H24.8883V32.0494L18.0464 31.802V38.4831ZM79.0795 12.5257L75.0337 23.4011L75.1946 12.5257H68.3526V32.9897L75.0832 33.2495L74.9842 26.2096L77.7309 33.3609L84.8327 33.6207L80.6879 24.7497L86.1318 12.5257C86.2802 12.5257 79.0795 12.5257 79.0795 12.5257ZM108.86 12.5257L103.639 34.3383L121.925 35.0064L117.211 12.5257H108.86ZM111.347 29.2038L112.015 25.2198L112.485 22.1639C112.485 22.1144 112.535 21.9535 112.535 21.6937C112.584 21.4339 112.633 20.9637 112.695 20.2956C112.745 19.9368 112.794 19.6275 112.794 19.3677C112.844 19.1079 112.844 18.848 112.893 18.5882L113.104 20.9761C113.153 21.4957 113.203 21.8545 113.264 22.2133C113.314 22.5227 113.314 22.7825 113.363 22.9928C113.574 24.6507 113.673 25.6405 113.722 25.8385C113.722 25.9993 113.772 26.1478 113.772 26.3086L114.242 29.2656L111.347 29.2038ZM125.959 38.4831H132.59L132.899 36.0952L125.34 35.8354L125.959 38.4831ZM65.9647 33.6083V38.4831H72.8067L72.7572 33.8187L65.9647 33.6083ZM144.666 12.5257L143.428 20.3946C143.268 21.4834 143.119 22.7206 142.958 24.0692C142.797 25.4178 142.698 26.9643 142.55 28.6841C142.142 24.7992 141.672 21.4339 141.152 18.6377L140.014 12.5257H134.161L132.862 19.776C132.504 21.8422 132.194 24.0816 131.984 26.4076L131.774 28.3748L131.563 26.0488C131.402 24.4404 131.093 22.2628 130.685 19.4667L129.596 12.4763H122.865L127.889 35.1673L135.448 35.4271L136.376 28.6346C136.475 27.8552 136.586 27.1376 136.636 26.4571C136.685 25.789 136.797 25.1085 136.846 24.4899C136.945 23.2526 137.057 22.4237 137.106 21.9535C137.106 22.1639 137.156 22.4732 137.205 22.8815C137.255 23.2897 137.304 23.8094 137.415 24.4404C137.576 25.6776 137.774 27.1871 138.084 28.8944L139.271 35.5261L146.633 35.7859L151.347 12.3649L144.666 12.5257ZM137.205 38.4831H143.738L144.146 36.5158L136.784 36.256L137.205 38.4831ZM112.596 35.3157L113.116 38.4707H120.156L119.537 35.5755L112.596 35.3157ZM86.3297 37.8521C88.1485 38.582 89.8559 38.9408 91.4643 38.9408C93.7903 38.9408 95.708 38.1119 97.2174 36.5035C97.6876 35.9838 98.0959 35.4147 98.4052 34.7961L86.2802 34.3259C86.3297 34.3878 86.3297 37.8521 86.3297 37.8521ZM75.4049 33.9671L77.1618 38.5202H84.5234L82.5561 34.2146L75.4049 33.9671ZM100.372 38.4831H107.412L107.981 35.2662L101.251 34.9074L100.372 38.4831ZM14.7306 46.921H19.1847C19.1847 47.3293 19.1847 47.75 19.1352 48.1583C19.0857 48.5171 19.0362 48.8883 18.9248 49.1976C18.764 49.6059 18.566 50.0265 18.2567 50.3853C17.9969 50.7441 17.6876 51.0039 17.2669 51.2638C16.9081 51.5236 16.4875 51.6721 16.0792 51.7834C15.609 51.8824 15.1513 51.9937 14.6811 51.9937C14.0625 51.9937 13.4439 51.8948 12.8624 51.6844C12.3427 51.4741 11.8231 51.1648 11.4643 50.7565C11.056 50.3482 10.7343 49.8781 10.5363 49.3089C10.326 48.7398 10.1775 48.0717 10.227 47.4407C10.227 46.8221 10.326 46.2034 10.5363 45.5725C10.7467 45.0528 11.056 44.5332 11.4643 44.1249C11.8726 43.7166 12.3427 43.3949 12.9118 43.197C13.5305 42.9866 14.1491 42.8382 14.7801 42.8876C15.609 42.8876 16.438 43.098 17.168 43.4568C17.8979 43.8651 18.4671 44.4961 18.7764 45.2755L16.6483 46.154C16.4875 45.7457 16.24 45.3745 15.8689 45.1147C15.5595 44.9043 15.2007 44.8054 14.7801 44.8054C14.4708 44.8054 14.1615 44.8549 13.8521 45.0157C13.5923 45.1147 13.3325 45.325 13.1222 45.5353C12.9118 45.7952 12.7634 46.055 12.652 46.3643C12.553 46.7231 12.4912 47.0943 12.4912 47.4531C12.4912 47.8119 12.5407 48.1212 12.652 48.4923C12.751 48.8017 12.8624 49.0615 13.0603 49.3213C13.2706 49.5316 13.4686 49.7296 13.7903 49.8409C14.0996 50.0018 14.4089 50.0513 14.7801 50.0513C14.9904 50.0513 15.1884 50.0513 15.3987 50.0018C15.609 49.9523 15.7575 49.9028 15.9678 49.742C16.1287 49.643 16.2771 49.4821 16.3761 49.3337C16.4751 49.1233 16.5865 48.9254 16.5865 48.715H14.7306V46.921ZM41.9375 50.2369H38.7207L38.2011 51.7339H35.8132L39.129 43.1351H41.5663L44.8327 51.7834H42.4448L41.9375 50.2369ZM41.3684 48.5295L40.3786 45.6343L39.3888 48.5295H41.3684ZM61.8818 51.7463L63.3294 43.098H65.5565L67.2638 47.7129L68.9712 43.098H71.1983L72.6458 51.7463H70.4188L69.6888 46.7726L67.6721 51.7463H66.7937L64.8883 46.7726L64.1584 51.7463H61.8818ZM92.751 43.1475V51.7958H90.524V43.1475H92.751ZM110.938 51.7463V43.1475H113.165L117.31 48.4305V43.1475H119.537V51.7958H117.31L113.165 46.5128V51.7958L110.938 51.7463ZM142.129 46.921H146.583C146.583 47.3912 146.583 47.7995 146.534 48.1583C146.484 48.5171 146.435 48.8883 146.324 49.1976C146.163 49.6059 145.965 50.0265 145.655 50.3853C145.396 50.7441 145.086 51.0039 144.666 51.2638C144.307 51.5236 143.886 51.6721 143.478 51.7834C143.008 51.8824 142.55 51.9937 142.08 51.9937C141.461 51.9937 140.843 51.8948 140.261 51.6844C139.741 51.4741 139.222 51.1648 138.863 50.7565C138.455 50.3482 138.133 49.8781 137.935 49.3089C137.527 48.1212 137.465 46.7726 137.935 45.5848C138.145 45.0652 138.455 44.5455 138.863 44.1373C139.271 43.729 139.741 43.4073 140.311 43.2093C140.929 42.999 141.548 42.8505 142.179 42.9C143.008 42.9 143.837 43.1103 144.567 43.4691C145.297 43.8774 145.866 44.5084 146.175 45.2879L144.047 46.1663C143.886 45.758 143.639 45.3869 143.268 45.127C142.958 44.9167 142.599 44.8177 142.179 44.8177C141.869 44.8177 141.56 44.8672 141.251 45.0281C140.991 45.127 140.731 45.3374 140.521 45.5477C140.311 45.8075 140.162 46.0673 140.051 46.3767C139.952 46.7355 139.89 47.1066 139.89 47.4654C139.89 47.8242 139.939 48.1335 140.051 48.5047C140.15 48.814 140.261 49.0738 140.459 49.3337C140.669 49.544 140.867 49.742 141.189 49.8533C141.498 50.0141 141.808 50.0636 142.179 50.0636C142.389 50.0636 142.587 50.0636 142.797 50.0141C143.008 49.9647 143.156 49.9152 143.367 49.7543C143.527 49.6553 143.676 49.4945 143.775 49.346C143.874 49.1357 143.985 48.9377 143.985 48.7274H142.166V46.9705H142.129V46.921Z" fill="white" fill-opacity="0.6"/>
</svg>
