<svg width="121" height="64" viewBox="0 0 121 64" fill="none" xmlns="http://www.w3.org/2000/svg">
<path d="M98.3632 26.7083C93.1704 27.0247 95.5032 33.799 101.25 33.4431C106.864 33.0873 103.899 26.3657 98.3632 26.7083Z" fill="white" fill-opacity="0.6"/>
<path d="M96.1754 22.5305C86.9365 22.5305 79.4373 30.0296 79.4373 39.2685C79.4373 48.5074 86.9365 56.0066 96.1754 56.0066C105.414 56.0066 112.913 48.5074 112.913 39.2685C112.913 30.0165 105.414 22.5305 96.1754 22.5305ZM96.1754 54.2537C87.8986 54.2537 81.1902 47.5453 81.1902 39.2817C81.1902 31.0181 87.8986 24.2965 96.1622 24.2965C104.426 24.2965 111.147 30.9918 111.147 39.2685C111.147 47.5453 104.439 54.2537 96.1754 54.2537ZM95.6614 10.8402C91.6812 13.8451 92.3797 18.4448 92.3797 18.4448C92.3797 18.4448 89.8756 11.9605 86.6334 7.99341C86.1985 13.0939 87.7932 19.855 87.7932 19.855C87.7932 19.855 85.7635 15.6639 80.7817 15.4267C84.9069 17.799 86.5148 22.0692 86.8706 23.2158C89.3352 21.7002 92.1425 20.8435 95.0288 20.7512C94.7256 19.6969 93.5658 15.2026 95.6614 10.8402Z" fill="white" fill-opacity="0.6"/>
<path d="M9.80967 40.9028V44.4086H8.34674V35.3806H11.4176C12.4588 35.3806 13.2364 35.631 13.7635 36.1186C14.2907 36.6063 14.5543 37.2916 14.5543 38.1483C14.5543 39.0049 14.2907 39.6771 13.7504 40.1647C13.21 40.6524 12.4324 40.9028 11.4308 40.9028H9.80967ZM13.065 38.1614C13.065 37.6474 12.9201 37.2652 12.6433 36.9885C12.3533 36.7249 11.9052 36.5799 11.2726 36.5799H9.80967V39.7166H11.2726C12.4588 39.7166 13.065 39.2026 13.065 38.1614ZM20.5642 44.4086L18.3105 40.7974H17.2693V44.4086H15.8196V35.3806H19.009C20.037 35.3806 20.8278 35.631 21.355 36.1318C21.8822 36.6326 22.1589 37.3048 22.1589 38.1219C22.1589 38.8204 21.9612 39.4003 21.5659 39.8616C21.1705 40.3229 20.6037 40.6128 19.8525 40.7315L22.2248 44.3954H20.5642V44.4086ZM17.2825 39.7694H18.8904C20.0634 39.7694 20.6565 39.2554 20.6565 38.2142C20.6565 37.7265 20.5115 37.3311 20.2347 37.0544C19.9448 36.7776 19.5098 36.6458 18.9036 36.6458H17.2825V39.7694ZM28.8542 42.458H25.0453L24.3599 44.4086H22.8047L26.126 35.5255H27.7998L31.1079 44.4086H29.5527L28.8542 42.458ZM28.4456 41.3245L26.9431 37.1071L25.4406 41.3245H28.4456ZM38.4621 36.1054C39.1738 36.6326 39.6746 37.397 39.8855 38.2669H38.3566C38.1589 37.7924 37.8294 37.3839 37.3945 37.1071C36.9201 36.804 36.3665 36.659 35.7998 36.6722C35.2726 36.659 34.7454 36.804 34.2841 37.0675C33.836 37.3311 33.467 37.7265 33.243 38.1878C32.9794 38.7282 32.8607 39.3081 32.8739 39.9012C32.8607 40.5206 32.9925 41.1269 33.2561 41.6804C33.4934 42.1549 33.8756 42.5502 34.3369 42.8138C34.8377 43.0774 35.3912 43.2224 35.9579 43.2092C36.6696 43.2224 37.355 42.972 37.8822 42.4975C38.4225 42.0362 38.7388 41.3904 38.8575 40.5865H35.5494V39.5189H40.0832V40.916C39.9909 41.5618 39.7405 42.1812 39.3715 42.7216C38.9892 43.2619 38.4884 43.71 37.9085 44.0264C37.2627 44.3558 36.5378 44.5272 35.813 44.514C34.9958 44.5272 34.1919 44.3295 33.4802 43.9209C32.8212 43.5387 32.2677 42.972 31.925 42.2867C31.1869 40.7842 31.1869 39.0181 31.925 37.5156C32.2808 36.8435 32.8212 36.2768 33.4802 35.8946C34.1919 35.4992 34.9958 35.3015 35.7998 35.3147C36.8542 35.3147 37.7504 35.5783 38.4621 36.1054ZM50.35 35.5255V44.4086H48.8739V37.7529L46.3039 44.4086H45.0255L42.4423 37.7529V44.4086H40.9794V35.5255H42.7454L45.6845 42.6161L48.5708 35.5255H50.35ZM57.4934 42.458H53.6845L52.9991 44.4086H51.4308L54.752 35.5255H56.4258L59.7339 44.4086H58.1787L57.4934 42.458ZM57.0848 41.3245L55.5823 37.1071L54.0799 41.3245H57.0848ZM65.981 35.3806V36.5535H63.4637V44.4086H61.9876V36.5535H59.4835V35.3806H65.981ZM68.2084 35.3806V44.4086H66.7586V35.3806H68.2084ZM76.4588 36.1318C77.1968 36.6985 77.724 37.5157 77.9349 38.425H76.3929C76.1952 37.8979 75.8393 37.4498 75.378 37.1203C74.8772 36.7908 74.271 36.6194 73.6647 36.6458C73.1639 36.6326 72.6631 36.7776 72.2281 37.0412C71.7932 37.318 71.4505 37.7133 71.2265 38.1746C70.7388 39.2685 70.7388 40.5074 71.2265 41.6013C71.4505 42.0626 71.7932 42.458 72.2281 42.7348C72.6631 42.9984 73.1639 43.1433 73.6647 43.1301C74.271 43.1565 74.864 42.9852 75.378 42.6557C75.8393 42.3394 76.1952 41.8913 76.3929 41.3641H77.9349C77.7108 42.2735 77.1968 43.0774 76.4588 43.6441C75.7207 44.1977 74.8113 44.4876 73.6911 44.4876C72.9003 44.5008 72.1095 44.3031 71.4242 43.9077C70.7652 43.5255 70.238 42.9588 69.9085 42.2867C69.1968 40.7842 69.1968 39.0313 69.9085 37.5156C70.2512 36.8435 70.7784 36.2768 71.4242 35.8814C72.1095 35.486 72.8871 35.2751 73.6911 35.2883C74.8113 35.2883 75.7207 35.5783 76.4588 36.1318ZM84.8146 40.9028V44.4086H83.3649V35.3806H86.4357C87.4769 35.3806 88.2545 35.631 88.7817 36.1186C89.3089 36.6063 89.5724 37.2916 89.5724 38.1483C89.5724 39.0049 89.3089 39.6771 88.7685 40.1647C88.2281 40.6524 87.4505 40.9028 86.4357 40.9028H84.8146ZM88.0832 38.1614C88.0832 37.6474 87.9382 37.2652 87.6614 36.9885C87.3715 36.7249 86.9234 36.5799 86.2907 36.5799H84.8278V39.7166H86.2907C87.4769 39.7166 88.0832 39.2026 88.0832 38.1614ZM92.0634 43.2751H95.1869V44.4086H90.6136V35.3806H92.0766V43.2751H92.0634ZM101.856 42.458H98.0469L97.3616 44.4086H95.8064L99.1276 35.5255H100.801L104.11 44.4086H102.554L101.856 42.458ZM101.447 41.3245L99.9579 37.1071L98.4687 41.3245H101.447ZM109.961 35.3806L106.956 41.1269V44.4086H105.493V41.1269L102.475 35.3806H104.162L106.231 39.5585L108.301 35.3806H109.961Z" fill="white" fill-opacity="0.6"/>
</svg>
