<svg width="224" height="64" viewBox="0 0 224 64" fill="none" xmlns="http://www.w3.org/2000/svg">
<path fill-rule="evenodd" clip-rule="evenodd" d="M18.1629 26.592L17.7716 29.5651H18.4233C20.0524 29.5651 20.768 29.1142 20.768 27.9505C20.768 27.0444 20.1818 26.592 19.2044 26.592H18.1629ZM17.2509 33.9607L16.7942 37.5171H17.3164C19.5302 37.5171 20.5076 36.9353 20.5076 35.3833C20.5076 34.4145 19.9215 33.9607 18.5542 33.9607H17.2509ZM24.3505 31.6989C26.5658 32.1513 27.7382 33.7673 27.7382 36.16C27.7382 39.8444 24.7418 42.3651 20.6385 42.3651H8.91345L11.5185 21.6145H20.8335C24.2211 21.6145 26.1745 22.5833 27.216 24.6531C27.6087 25.4284 27.8022 26.2676 27.8022 26.9149C27.8022 29.3716 26.5658 31.0531 24.3505 31.5695V31.6989Z" fill="white" fill-opacity="0.6"/>
<path fill-rule="evenodd" clip-rule="evenodd" d="M46.5615 21.6247L45.9098 27.0545H39.7862L39.4618 29.3178H45.1287L44.4771 34.4233H38.8756L38.5498 36.816H44.9324L44.2807 42.3753H30.2764L32.8844 21.6247H46.5629H46.5615ZM63.7571 21.6247L62.9105 28.1542L59.328 27.9593L57.504 42.3753H49.8182L51.6422 27.9607L47.9942 28.1542L48.7767 21.6233H63.7585L63.7571 21.6247Z" fill="white" fill-opacity="0.6"/>
<path fill-rule="evenodd" clip-rule="evenodd" d="M81.6698 23.2407L78.8684 28.736C77.5665 27.5724 75.9375 26.8596 74.3098 26.8596C73.4633 26.8596 72.8771 27.3135 72.8771 27.9593C72.8771 28.6065 73.2669 28.8 75.1564 29.3178C76.5891 29.7047 77.7615 30.1571 78.544 30.6749C79.9767 31.5796 80.8233 33.3905 80.8233 35.3295C80.8233 39.4662 76.72 42.8931 71.7033 42.8931C69.7498 42.8931 67.4051 42.3113 65.3862 41.4065C64.7216 41.1099 64.0694 40.7862 63.4313 40.4364L66.2327 34.8116C67.4691 36.3636 69.4909 37.2698 71.4444 37.2698C72.4858 37.2698 73.2029 36.816 73.2029 36.0407C73.2029 35.3295 72.6153 34.8771 71.248 34.5542C69.8153 34.2953 69.0342 34.0364 68.2516 33.648C66.2982 32.6793 65.2553 30.9338 65.2553 28.5425C65.2553 24.4044 69.0982 21.1069 73.8531 21.1069C76.0029 21.1069 78.2167 21.6247 80.3665 22.5935C80.6284 22.7244 81.0836 22.9818 81.6698 23.2407Z" fill="white" fill-opacity="0.6"/>
<path fill-rule="evenodd" clip-rule="evenodd" d="M96.4567 33.584L95.3484 42.3753H87.7935L88.9004 33.3905L83.4298 21.6233H91.7658L92.8087 24.9862C93.0691 25.7615 93.1345 26.2793 93.2 27.3775H93.4604C93.6356 26.7 93.8982 26.0483 94.2415 25.4385L96.1964 21.6247H105.315L96.4567 33.584ZM126.743 30.2865V30.4815C126.743 33.2596 126.093 37.0749 123.292 39.8545C120.687 42.3753 117.69 42.8931 114.889 42.8931C111.958 42.8931 109.223 42.3753 106.682 39.92C105.184 38.4975 103.62 36.1047 103.62 32.4844C103.62 29.3818 104.793 26.5382 106.813 24.5338C108.18 23.1753 111.046 21.1069 116.063 21.1069C120.492 21.1069 123.812 22.7229 126.093 26.3433L118.993 29.1229C118.668 28.4116 117.885 27.3775 116.192 27.3775C114.889 27.3775 113.782 27.8298 113.001 28.5411C112.023 29.4473 111.306 31.0633 111.306 32.8087C111.306 34.1658 111.763 35.2 112.479 35.9753C113.327 36.816 114.303 37.0749 115.411 37.0749C116.192 37.0749 118.081 36.8815 118.797 34.8116H114.695L115.345 30.288H126.745L126.743 30.2865ZM137.556 34.8771H140.422L140.099 31.1273C140.099 30.8044 140.033 30.2865 140.033 29.6407C140.033 28.864 140.099 28.6705 140.099 28.0247H139.837C139.578 29.2524 139.382 29.8996 138.927 31.1273L137.559 34.8771H137.556ZM135.798 39.5956L134.82 42.3753H126.679L136.317 21.6247H144.98L148.889 42.3753H141.137L141.007 39.5971H135.796L135.798 39.5956ZM177.29 21.6247L177.356 42.3753H169.994L170.385 36.2342C170.516 34.0364 170.711 32.6793 171.103 30.4815L170.841 30.416L170.711 30.9978C170.191 33.1316 169.929 33.9069 169.018 36.0407L166.348 42.3098H161.593L160.745 35.7178C160.681 35.3295 160.681 34.8116 160.615 34.1658C160.55 33.3905 160.55 32.7433 160.55 32.2909V31.9025C160.55 31.3207 160.55 31.0633 160.615 30.352H160.355L160.289 30.8029C160.029 32.7433 159.898 33.648 159.443 35.7178L157.879 42.3113H150.193L156.252 21.5593H164.263L165.044 28.0247C165.11 28.8 165.174 29.5113 165.174 30.352C165.174 31.2567 165.174 31.7091 164.979 32.6138H165.305C165.696 30.6749 166.086 29.2538 167.129 26.7316L169.213 21.6247H177.29ZM197.025 21.6247L196.374 27.0545H190.186L189.926 29.3178H195.527L194.941 34.4233H189.274L189.014 36.816H195.396L194.681 42.3753H180.742L183.281 21.6247H197.025ZM215.459 23.2407L212.657 28.736C211.354 27.5724 209.727 26.8596 208.097 26.8596C207.251 26.8596 206.665 27.3135 206.665 27.9593C206.665 28.6065 207.056 28.8 208.944 29.3178C210.378 29.7047 211.551 30.1571 212.332 30.6749C213.764 31.5796 214.611 33.3905 214.611 35.3295C214.611 39.4662 210.508 42.8931 205.492 42.8931C203.539 42.8931 201.194 42.3113 199.174 41.4065C198.51 41.1097 197.858 40.7861 197.22 40.4364L200.022 34.8116C201.258 36.3636 203.279 37.2698 205.232 37.2698C206.273 37.2698 206.991 36.816 206.991 36.0407C206.991 35.3295 206.404 34.8771 205.037 34.5542C203.603 34.2953 202.822 34.0364 202.041 33.648C200.086 32.6793 199.044 30.9338 199.044 28.5425C199.044 24.4044 202.887 21.1069 207.642 21.1069C209.792 21.1069 212.006 21.6247 214.156 22.5935C214.481 22.7244 214.937 22.9818 215.459 23.2407Z" fill="white" fill-opacity="0.6"/>
<path fill-rule="evenodd" clip-rule="evenodd" d="M78.4785 20.1367L79.456 16H71.8342L70.8582 20.0727C71.9651 19.8793 73.1375 19.8138 74.4407 19.8138C75.808 19.7498 77.1753 19.8793 78.4785 20.1367ZM67.2742 43.8618H67.0793L66.1018 48H73.7236L74.6996 43.9913C73.6582 44.1222 72.4858 44.2502 71.3135 44.2502C69.8807 44.2502 68.512 44.1207 67.2742 43.8618Z" fill="white" fill-opacity="0.6"/>
</svg>
