<svg width="133" height="64" viewBox="0 0 133 64" fill="none" xmlns="http://www.w3.org/2000/svg">
<g clip-path="url(#clip0_0_302)">
<path d="M102.694 40.381V38.3208H108.721V40.3733H106.615V43.3295L106.63 46.9135H104.662V40.381H102.694Z" fill="white" fill-opacity="0.6"/>
<path fill-rule="evenodd" clip-rule="evenodd" d="M95.5705 46.7596H97.6902L97.6719 45.2008V43.5383H100.642V41.4766H97.6719V40.2606L101.852 40.2621V38.2491H95.5705V46.7596ZM88.8978 39.5124H88.0429V45.9093H88.8978C88.8978 45.9093 88.9191 46.909 88.8978 46.912H93.39V45.9093H94.2464L94.2524 42.6225V39.4926H93.2498V38.3695H88.8978V39.5124ZM92.2852 44.8244H90.1016V40.387H92.2852V44.8244Z" fill="white" fill-opacity="0.6"/>
<path d="M81.3549 38.8389C81.4083 38.6149 81.4616 38.2491 81.4616 38.2491H86.5359L86.5252 39.2853V40.2667H84.4574L82.3622 40.2758V41.4156H85.4997V42.0602C85.4997 42.4305 85.6947 42.5539 86.0803 42.5539H86.5359V45.5787C86.5359 45.5787 86.5176 45.6244 86.0803 45.6853C85.6429 45.7463 85.4707 45.9825 85.4677 46.464C85.4662 46.8053 85.4585 46.8069 82.8924 46.8069H80.3949V44.8305H82.3454C84.4574 44.8305 84.5641 44.7208 84.5641 44.1859C84.5641 43.6526 84.5641 43.5398 82.9595 43.5398H81.454V43.0095C81.3869 42.5371 81.2467 42.4701 80.8064 42.429H80.3949V39.4377H80.7134C80.8676 39.4121 81.0108 39.3414 81.125 39.2346C81.2392 39.1278 81.3192 38.9911 81.3549 38.8389Z" fill="white" fill-opacity="0.6"/>
<path fill-rule="evenodd" clip-rule="evenodd" d="M80.5534 16.0549V24.5059H82.51V21.2922H85.8684C85.8684 20.9082 85.8502 20.3154 85.8502 20.3154H86.7584V17.0819H85.8502V16.0549H83.2262C81.7968 16.0762 80.5534 16.0549 80.5534 16.0549ZM88.8963 17.1429H88.0399V23.5413H88.8963C88.8963 23.5413 88.9161 24.541 88.8963 24.5425H93.3885V23.5429H94.2448L94.2494 20.2514V17.123H93.2467V16H88.8947L88.8963 17.1429ZM96.6159 17.0636H95.5721V23.5794C95.8601 23.5825 96.5976 23.5794 96.5976 23.5794V24.5059H100.834V23.5764H101.303L101.818 23.5794V21.3912H99.9271V22.5798H97.5606V18.051H100.02V18.9425H101.818V17.0636H100.756V16.0762H96.6159V17.0636ZM103.106 24.5059H105.073V21.3166H107.343V24.5059H109.363V21.44C109.363 21.44 109.207 21.475 108.791 21.315C108.284 21.1185 108.175 19.5139 108.706 19.2122C109.236 18.9074 109.338 18.941 109.338 18.941V16.032H107.293V19.1573H105.154V16H103.106V24.5059ZM118.242 17.9749H120.209V24.5059H122.176V21.4217C122.176 17.8971 122.161 17.9657 122.161 17.9657H124.268V16H118.242V17.9749ZM84.7637 19.1589H83.7031C82.7995 19.1589 82.51 19.1787 82.51 18.592C82.51 18.0053 82.7035 18.051 83.7031 18.051H84.7622L84.7637 19.1589ZM92.2837 22.4549H90.1001V18.0175H92.2837V22.4549Z" fill="white" fill-opacity="0.6"/>
<path d="M110.516 24.4709V16H116.887V17.9398L112.613 17.9307V19.1543H115.813L115.804 21.155H112.613V22.496H116.873V24.4709H110.516Z" fill="white" fill-opacity="0.6"/>
<path fill-rule="evenodd" clip-rule="evenodd" d="M81.3991 27.7669C81.358 28.1859 81.2315 28.3886 80.849 28.4541H80.3949V34.8038H81.3793V35.8949H85.6155V35.3737C85.6155 34.8952 86.1092 34.8038 86.1092 34.8038H86.6014V30.5798H83.4974C83.4974 31.4392 83.5218 32.6354 83.5218 32.6354H84.5305V33.9337H82.5145V29.3547H85.5408V27.3813H81.3991V27.7669ZM88.9465 27.7394C88.9465 28.1844 88.6784 28.4541 88.2349 28.4541H87.8875V35.8949H89.9309V33.693H92.1252V35.8964H94.1686V28.5272L93.7145 28.4754C93.2071 28.419 93.0395 28.2331 93.0365 27.7303C93.0334 27.3935 93.0075 27.389 90.99 27.389C88.9587 27.389 88.9465 27.3905 88.9465 27.7394ZM95.3039 27.4255V35.8949H97.4235V32.6872H98.5237C98.5237 32.6872 98.4825 33.1947 98.5237 33.5421H99.4852V32.6888H100.719V35.8949H102.722V27.392H101.626V28.4099H101.093C100.556 28.4099 100.665 28.4099 100.665 29.0514C100.665 29.4903 100.665 29.4781 100.13 29.4903C99.5949 29.4994 99.5949 29.4903 99.5949 30.0587C99.5949 30.5661 99.6605 30.5813 99.0601 30.5813C98.4582 30.5813 98.4841 30.656 98.4841 30.0587C98.4841 29.4309 98.5252 29.4903 97.9934 29.4903C97.2406 29.4903 97.2406 29.4903 97.2406 28.9874C97.2406 28.4084 97.2406 28.4084 96.3858 28.4084V27.427H95.3054L95.3039 27.4255ZM103.932 35.8964H110.289V33.92H106.027V32.579H109.219L109.23 30.5783H106.027V29.3547L110.303 29.3638V27.4255H103.932V35.8964ZM112.642 27.3371C112.642 27.3371 112.588 27.7029 112.535 27.9269C112.499 28.0788 112.42 28.2169 112.306 28.3237C112.192 28.4305 112.049 28.5013 111.895 28.5272H111.575V31.5185H111.987C112.428 31.5611 112.569 31.6297 112.634 32.1006V32.6309H114.14C115.744 32.6309 115.744 32.7421 115.744 33.277C115.744 33.8103 115.638 33.9215 113.527 33.9215H111.577V35.8949H114.073C116.639 35.8949 116.646 35.8949 116.648 35.5535C116.651 35.072 116.823 34.8358 117.26 34.7749C117.698 34.7139 117.716 34.6682 117.716 34.6682V31.6434H117.259C116.873 31.6434 116.677 31.5185 116.677 31.1497V30.5036H113.541V29.3653L115.636 29.3562H117.704V28.3733L117.715 27.3371H112.642ZM92.049 31.5672H89.9309V29.44H92.049V31.5672Z" fill="white" fill-opacity="0.6"/>
<path d="M11.4532 37.8225H14.0208V40.3901H11.4532V37.8225ZM11.4532 34.8267H14.0208V37.3943H11.4532V34.8267ZM14.449 34.8267H17.0166V37.3943H14.449V34.8267ZM17.4433 34.8267H20.0109V37.3943H17.4433V34.8267ZM20.4391 34.8267H23.0067V37.3943H20.4391V34.8267ZM23.4334 34.8267H26.001V37.3943H23.4334V34.8267ZM26.6441 34.8267H29.2117V37.3943H26.6441V34.8267Z" fill="white" fill-opacity="0.6"/>
<path d="M26.6441 37.8225H29.2117V40.3901H26.6441V37.8225Z" fill="white" fill-opacity="0.6"/>
<path d="M29.6368 34.8267H32.2044V37.3943H29.6368V34.8267ZM32.8475 34.8267H35.4151V37.3943H32.8475V34.8267ZM32.8475 31.6175H35.4151V34.1851H32.8475V31.6175ZM29.6368 31.6175H32.2044V34.1851H29.6368V31.6175ZM36.0551 31.6175H38.6227V34.1851H36.0551V31.6175ZM36.0551 28.6232H38.6227V31.1909H36.0551V28.6232ZM36.0551 25.6274H38.6227V28.195H36.0551V25.6274ZM36.0551 22.6331H38.6227V25.2008H36.0551V22.6331ZM32.8475 22.6331H35.4151V25.2008H32.8475V22.6331ZM29.8502 22.6331H32.4178V25.2008H29.8502V22.6331ZM29.8502 19.424H32.4178V21.9916H29.8502V19.424ZM29.6368 16.4282H32.2044V18.9958H29.6368V16.4282ZM26.6441 19.424H29.2117V21.9916H26.6441V19.424ZM26.6441 16.4282H29.2117V18.9958H26.6441V16.4282ZM23.6467 19.424H26.2144V21.9916H23.6467V19.424ZM23.6467 16.4282H26.2144V18.9958H23.6467V16.4282ZM20.654 19.424H23.2216V21.9916H20.654V19.424ZM20.654 16.4282H23.2216V18.9958H20.654V16.4282ZM17.4433 19.424H20.0109V21.9916H17.4433V19.424ZM17.4433 16.4282H20.0109V18.9958H17.4433V16.4282ZM14.449 19.424H17.0166V21.9916H14.449V19.424ZM14.449 16.4282H17.0166V18.9958H14.449V16.4282ZM11.4532 19.424H14.0208V21.9916H11.4532V19.424ZM11.4532 16.4282H14.0208V18.9958H11.4532V16.4282ZM11.4532 22.4183H14.0208V24.9859H11.4532V22.4183ZM11.4532 25.6274H14.0208V28.195H11.4532V25.6274ZM11.4532 28.8366H14.0208V31.4042H11.4532V28.8366ZM11.4532 31.8324H14.0208V34.4H11.4532V31.8324ZM8.45892 22.4183H11.0265V24.9859H8.45892V22.4183Z" fill="white" fill-opacity="0.6"/>
<path d="M8.45892 19.424H11.0265V21.9916H8.45892V19.424Z" fill="white" fill-opacity="0.6"/>
<path d="M32.8475 19.424H35.4151V21.9916H32.8475V19.424Z" fill="white" fill-opacity="0.6"/>
<path d="M32.8475 16.4282H35.4151V18.9958H32.8475V16.4282Z" fill="white" fill-opacity="0.6"/>
<path d="M32.8475 25.6274H35.4151V28.195H32.8475V25.6274ZM32.8475 28.6232H35.4151V31.1909H32.8475V28.6232ZM8.45892 37.8225H11.0265V40.3901H8.45892V37.8225ZM8.45892 34.8267H11.0265V37.3943H8.45892V34.8267ZM8.45892 31.8324H11.0265V34.4H8.45892V31.8324ZM8.45892 28.8366H11.0265V31.4042H8.45892V28.8366ZM8.45892 25.6274H11.0265V28.195H8.45892V25.6274ZM14.449 37.8225H17.0166V40.3901H14.449V37.8225ZM17.4433 37.8225H20.0109V40.3901H17.4433V37.8225ZM20.4391 37.8225H23.0067V40.3901H20.4391V37.8225ZM23.4334 37.8225H26.001V40.3901H23.4334V37.8225ZM11.4532 40.8168H14.0208V43.3844H11.4532V40.8168Z" fill="white" fill-opacity="0.6"/>
<path d="M11.4532 43.8126H14.0208V46.3802H11.4532V43.8126Z" fill="white" fill-opacity="0.6"/>
<path d="M8.45892 40.8168H11.0265V43.3844H8.45892V40.8168ZM8.45892 43.8126H11.0265V46.3802H8.45892V43.8126ZM44.3995 25.6259H46.9671V28.1935H44.3995V25.6259ZM44.3995 28.6217H46.9671V31.1878H44.3995V28.6217ZM44.3995 31.616H46.9671V34.1836H44.3995V31.616ZM44.3995 34.6103H46.9671V37.1779H44.3995V34.6103ZM44.3995 37.821H46.9671V40.387H44.3995V37.821ZM47.6071 37.821H50.1747V40.387H47.6071V37.821ZM47.6071 34.6103H50.1747V37.1779H47.6071V34.6103ZM47.6071 31.616H50.1747V34.1836H47.6071V31.616ZM47.6071 28.6217H50.1747V31.1878H47.6071V28.6217ZM47.6071 25.6259H50.1747V28.1935H47.6071V25.6259ZM47.6071 22.4168H50.1747V24.9844H47.6071V22.4168Z" fill="white" fill-opacity="0.6"/>
<path d="M44.3995 22.4168H46.9671V24.9844H44.3995V22.4168Z" fill="white" fill-opacity="0.6"/>
<path d="M50.6029 22.4168H53.1705V24.9844H50.6029V22.4168ZM50.6029 19.4225H53.1705V21.9886H50.6029V19.4225ZM53.5987 19.4225H56.1664V21.9886H53.5987V19.4225ZM53.5987 16.4267H56.1664V18.9943H53.5987V16.4267ZM56.5945 16.4267H59.1622V18.9943H56.5945V16.4267ZM56.5945 19.4225H59.1622V21.9886H56.5945V19.4225ZM59.5873 19.4225H62.1534V21.9886H59.5873V19.4225ZM59.5873 16.4267H62.1534V18.9943H59.5873V16.4267ZM62.798 16.4267H65.3641V18.9943H62.7964L62.798 16.4267ZM62.798 19.4225H65.3641V21.9886H62.7964L62.798 19.4225ZM65.7907 19.4225H68.3583V21.9886H65.7907V19.4225ZM65.7907 22.4168H68.3583V24.9844H65.7907V22.4168ZM59.5873 28.6217H62.1534V31.1878H59.5873V28.6217ZM59.5873 31.616H62.1534V34.1836H59.5873V31.616ZM62.798 31.616H65.3641V34.1836H62.7964L62.798 31.616ZM62.798 28.6217H65.3641V31.1878H62.7964L62.798 28.6217ZM65.7907 28.6217H68.3583V31.1878H65.7907V28.6217ZM68.9999 28.6217H71.5675V31.1878H69.0014L68.9999 28.6217ZM68.9999 31.616H71.5675V34.1836H69.0014L68.9999 31.616ZM71.9957 31.616H74.5633V34.1836H71.9957V31.616Z" fill="white" fill-opacity="0.6"/>
<path d="M71.9957 28.6217H74.5633V31.1878H71.9957V28.6217Z" fill="white" fill-opacity="0.6"/>
<path d="M71.9957 34.6103H74.5633V37.1779H71.9957V34.6103Z" fill="white" fill-opacity="0.6"/>
<path d="M71.9957 37.821H74.5633V40.387H71.9957V37.821Z" fill="white" fill-opacity="0.6"/>
<path d="M68.9999 34.6103H71.5675V37.1779H69.0014L68.9999 34.6103ZM68.9999 37.821H71.5675V40.387H69.0014L68.9999 37.821ZM68.9999 40.8152H71.5675V43.3813H69.0014L68.9999 40.8152ZM66.0071 40.8152H68.5732V43.3813H66.0071V40.8152ZM66.0071 37.821H68.5732V40.387H66.0071V37.821ZM62.798 40.8152H65.3641V43.3813H62.7964L62.798 40.8152ZM59.8022 40.8152H62.3698V43.3813H59.8022V40.8152ZM56.5945 40.8152H59.1622V43.3813H56.5945V40.8152ZM53.5987 40.8152H56.1664V43.3813H53.5987V40.8152ZM50.6029 40.8152H53.1705V43.3813H50.6029V40.8152Z" fill="white" fill-opacity="0.6"/>
<path d="M47.6071 40.8152H50.1747V43.3813H47.6071V40.8152Z" fill="white" fill-opacity="0.6"/>
<path d="M50.6029 44.0229H53.1705V46.5905H50.6029V44.0229ZM53.5987 44.0229H56.1664V46.5905H53.5987V44.0229ZM56.5945 44.0229H59.1622V46.5905H56.5945V44.0229ZM59.8022 44.0229H62.3698V46.5905H59.8022V44.0229ZM62.798 44.0229H65.3641V46.5905H62.7964V44.0244L62.798 44.0229Z" fill="white" fill-opacity="0.6"/>
<path d="M66.0071 44.0229H68.5732V46.5905H66.0071V44.0229Z" fill="white" fill-opacity="0.6"/>
<path d="M50.6029 37.821H53.1705V40.387H50.6029V37.821ZM66.0071 31.616H68.5732V34.1836H66.0071V31.616ZM68.9999 19.4225H71.5675V21.9886H69.0014L68.9999 19.4225ZM68.9999 22.4168H71.5675V24.9844H69.0014L68.9999 22.4168Z" fill="white" fill-opacity="0.6"/>
<path d="M50.6029 16.4267H53.1705V18.9943H50.6029V16.4267Z" fill="white" fill-opacity="0.6"/>
<path d="M47.6071 19.4225H50.1747V21.9886H47.6071V19.4225Z" fill="white" fill-opacity="0.6"/>
</g>
<defs>
<clipPath id="clip0_0_302">
<rect width="115.81" height="32" fill="white" transform="translate(8.45892 16)"/>
</clipPath>
</defs>
</svg>
