<svg width="135" height="64" viewBox="0 0 135 64" fill="none" xmlns="http://www.w3.org/2000/svg">
<path d="M36.0876 42.5617H42.1693V49.8017C41.2911 50.4399 40.3606 50.9147 39.3693 51.1999C38.3621 51.4936 37.3176 51.6394 36.2685 51.633C34.865 51.633 33.5815 51.4069 32.425 50.9669C31.3258 50.5595 30.3189 49.9369 29.4633 49.1356C28.641 48.3547 27.9922 47.4096 27.5589 46.3617C27.1047 45.2552 26.8764 44.069 26.8876 42.873C26.8876 41.593 27.1033 40.4191 27.5241 39.3478C27.9262 38.3067 28.5424 37.3617 29.3328 36.5739C30.1172 35.7965 31.0737 35.1913 32.185 34.7599C33.298 34.3286 34.545 34.1113 35.9241 34.1113C36.6389 34.1113 37.3033 34.1721 37.9311 34.2852C38.5606 34.4069 39.138 34.5617 39.6633 34.7686C40.1885 34.9773 40.6719 35.2173 41.1102 35.4939C41.5502 35.7791 41.938 36.0817 42.2824 36.4104L41.1363 38.1634C40.9803 38.4188 40.7296 38.602 40.4389 38.673C40.1537 38.7339 39.8441 38.6643 39.5172 38.4573C39.2286 38.2808 38.9327 38.1166 38.6302 37.9652C38.3567 37.8276 38.0716 37.7147 37.778 37.6278C37.4785 37.5407 37.1726 37.4767 36.8632 37.4365C36.5055 37.3929 36.1453 37.3731 35.785 37.3773C35.0459 37.3773 34.3746 37.5078 33.7798 37.7756C33.185 38.0347 32.6772 38.4052 32.2633 38.8886C31.8269 39.3929 31.4984 39.9812 31.298 40.6173C31.0663 41.3405 30.953 42.0963 30.9624 42.8556C30.9624 43.7617 31.0911 44.5739 31.3415 45.2834C31.5919 45.9913 31.945 46.5878 32.4024 47.0713C32.858 47.5547 33.4093 47.9269 34.0459 48.1843C34.6841 48.4365 35.3902 48.5669 36.1659 48.5669C36.6389 48.5669 37.0789 48.5217 37.4667 48.4278C37.854 48.3361 38.2318 48.2086 38.5954 48.0469V45.4469H36.9067C36.6931 45.4591 36.483 45.388 36.3206 45.2486C36.2509 45.1836 36.1957 45.1047 36.1585 45.0169C36.1213 44.9291 36.1031 44.8344 36.105 44.7391V42.5617H36.0876ZM59.9085 51.4434H56.8319C56.4876 51.4434 56.2128 51.3652 55.9972 51.1999C55.7844 51.0394 55.6181 50.8251 55.5154 50.5791L54.5067 47.5878H48.0024L47.0024 50.5878C46.9016 50.8233 46.7416 51.0288 46.538 51.1843C46.3004 51.3647 46.0085 51.4591 45.7102 51.4521H42.6093L49.225 34.3026H53.2911L59.9085 51.4434ZM53.6111 44.8939L52.025 40.2034C51.9032 39.9078 51.785 39.5547 51.6459 39.1495C51.5172 38.7426 51.3798 38.3113 51.2511 37.8347C51.1293 38.3113 51.0076 38.7599 50.8719 39.1652C50.7582 39.5243 50.6318 39.8793 50.4928 40.2295L48.9328 44.8939H53.6111ZM80.4806 34.3026V51.4504H76.9815V41.5843C76.9815 41.3599 76.9902 41.1095 76.9989 40.8417C77.0076 40.5739 77.0337 40.306 77.058 40.0295L72.5189 48.8417C72.3964 49.1018 72.1982 49.3188 71.9502 49.4643C71.7019 49.6078 71.4196 49.6823 71.1328 49.6799H70.5885C70.3013 49.6854 70.0182 49.6107 69.7711 49.4643C69.5231 49.3188 69.3248 49.1018 69.2024 48.8417L64.6632 40.0034C64.6876 40.2886 64.705 40.5652 64.7224 40.833C64.7398 41.1008 64.7485 41.3513 64.7485 41.5756V51.4347H61.2511V34.3026H64.2737C64.4476 34.3026 64.5937 34.3026 64.7224 34.3113C64.8511 34.3199 64.9624 34.346 65.0667 34.3808C65.1711 34.4156 65.2563 34.4834 65.3433 34.5617C65.4285 34.6486 65.5067 34.7599 65.5833 34.906L70.0024 43.6069C70.1589 43.9095 70.3137 44.2121 70.4511 44.5391C70.5972 44.8591 70.7346 45.1878 70.865 45.5252C70.9937 45.1791 71.1398 44.8417 71.2772 44.513C71.425 44.186 71.5798 43.8747 71.7433 43.5721L76.1276 34.906C76.1889 34.7784 76.2712 34.662 76.3711 34.5617C76.4467 34.4797 76.541 34.4171 76.6459 34.3791C76.756 34.3369 76.8724 34.3134 76.9902 34.3095C77.1189 34.3026 77.265 34.3026 77.4372 34.3026H80.4806ZM87.778 37.3599V41.3599H93.1519V44.306H87.778V48.393H94.7989V51.4521H83.7902V34.3026H94.7989V37.3599H87.778ZM106.688 37.7843C106.591 37.9469 106.466 38.0902 106.317 38.2069C106.17 38.3068 105.994 38.3557 105.816 38.346C105.612 38.3373 105.414 38.2775 105.239 38.1721C105.034 38.0608 104.801 37.9304 104.533 37.793C104.245 37.6413 103.946 37.5139 103.637 37.4121C103.264 37.2924 102.874 37.2337 102.482 37.2382C101.742 37.2382 101.182 37.3947 100.82 37.7147C100.458 38.0347 100.277 38.4573 100.277 39.0017C100.277 39.3478 100.39 39.633 100.604 39.8573C100.82 40.0817 101.114 40.2799 101.467 40.4452C101.82 40.6086 102.232 40.7634 102.689 40.8939C103.147 41.033 103.611 41.1878 104.095 41.3513C104.568 41.5252 105.041 41.7147 105.498 41.9478C105.955 42.1739 106.359 42.466 106.722 42.8208C107.075 43.1739 107.368 43.6069 107.583 44.1078C107.799 44.6173 107.91 45.2208 107.91 45.9391C107.91 46.7339 107.771 47.4765 107.496 48.1599C107.23 48.8378 106.826 49.4527 106.308 49.9652C105.758 50.4963 105.104 50.9084 104.387 51.1756C103.622 51.4678 102.759 51.6156 101.785 51.6156C101.251 51.6156 100.707 51.5634 100.157 51.4504C99.6107 51.3397 99.0743 51.1838 98.5537 50.9843C98.05 50.7885 97.5631 50.5517 97.098 50.2765C96.6664 50.0202 96.2676 49.7124 95.9102 49.3599L97.0806 47.5026C97.1806 47.3668 97.3065 47.2521 97.4511 47.1652C97.6076 47.0782 97.7711 47.0278 97.9519 47.0278C98.185 47.0278 98.425 47.106 98.658 47.2539C98.8998 47.3999 99.1659 47.5634 99.4685 47.7443C99.7693 47.9269 100.114 48.0921 100.51 48.2382C100.898 48.3843 101.362 48.4626 101.896 48.4626C102.622 48.4626 103.173 48.306 103.576 47.986C103.973 47.6678 104.171 47.1669 104.171 46.4747C104.185 46.1205 104.069 45.7735 103.844 45.4991C103.605 45.2328 103.311 45.0205 102.983 44.8765C102.591 44.6973 102.185 44.553 101.768 44.4452C101.312 44.3147 100.846 44.1773 100.373 44.0295C99.8947 43.8753 99.428 43.6876 98.9763 43.4678C98.0203 43.0146 97.2763 42.2095 96.8998 41.2208C96.6859 40.6782 96.5728 40.0034 96.5728 39.1999C96.5728 38.5617 96.7032 37.9304 96.9606 37.3165C97.222 36.6989 97.6094 36.1427 98.098 35.6834C98.6315 35.1838 99.2578 34.7939 99.9415 34.5356C100.739 34.2358 101.587 34.0889 102.439 34.1026C102.966 34.1026 103.474 34.146 103.973 34.2243C104.909 34.3754 105.81 34.6941 106.634 35.1652C107.023 35.3913 107.368 35.6417 107.677 35.9269L106.688 37.7843Z" fill="white" fill-opacity="0.6"/>
<path d="M15.4806 13.0226C16.6632 13.0226 17.6701 13.1357 18.4962 13.3513C19.324 13.567 20.004 13.8783 20.531 14.2835C21.0545 14.6905 21.4353 15.1739 21.6753 15.7444C21.9171 16.3148 22.0371 16.9548 22.0371 17.6626C22.0371 18.0505 21.9849 18.4139 21.8736 18.7757C21.7592 19.1369 21.5846 19.4762 21.3571 19.7792C21.1031 20.1107 20.7978 20.3996 20.4527 20.6348C20.0413 20.9154 19.5952 21.1416 19.1258 21.3079C20.2545 21.5861 21.0806 22.0261 21.6232 22.6383C22.1658 23.2522 22.4336 24.047 22.4336 25.0139C22.4336 25.7409 22.2945 26.4226 22.011 27.0539C21.7245 27.6864 21.3009 28.2471 20.771 28.6957C20.1762 29.1887 19.491 29.5609 18.7536 29.7913C17.9536 30.0522 17.0493 30.1896 16.0232 30.1896H9.1936V13.0244H15.4823L15.4806 13.0226ZM13.1553 16.0035V20.2365H15.2232C15.6614 20.2365 16.058 20.2018 16.411 20.1426C16.7658 20.0818 17.0666 19.9687 17.3084 19.8122C17.5552 19.657 17.7501 19.4317 17.8684 19.1652C17.9971 18.8887 18.058 18.5444 18.058 18.1287C18.058 17.7235 18.0058 17.3861 17.9014 17.1096C17.8085 16.8528 17.6481 16.6257 17.4371 16.4522C17.1996 16.2772 16.9265 16.1566 16.6371 16.0992C16.2562 16.0245 15.8686 15.9895 15.4806 15.9948H13.1553V16.0035ZM15.9466 27.1739C16.4719 27.1739 16.9032 27.1044 17.2301 26.9757C17.5293 26.8693 17.798 26.6914 18.0127 26.4574C18.1982 26.2533 18.3318 26.0075 18.4023 25.7409C18.4719 25.4731 18.5066 25.2052 18.5066 24.9287C18.5086 24.6419 18.4676 24.3564 18.3849 24.0818C18.3035 23.8346 18.1577 23.6137 17.9623 23.4418C17.7297 23.2539 17.4591 23.1186 17.1693 23.0452C16.7643 22.9422 16.347 22.8954 15.9293 22.9061H13.1553V27.1739H15.9466ZM82.3501 13.0226V30.1722H78.8527V20.3148C78.8527 20.0887 78.8614 19.84 78.8701 19.5722C78.8788 19.3044 78.9049 19.0365 78.9293 18.76L74.3901 27.5722C74.2677 27.8323 74.0694 28.0493 73.8214 28.1948C73.5731 28.3384 73.2909 28.4128 73.004 28.4105H72.4597C72.1725 28.4158 71.8895 28.3411 71.6423 28.1948C71.3943 28.0493 71.1961 27.8323 71.0736 27.5722L66.5345 18.7339C66.5588 19.0192 66.5762 19.2957 66.5936 19.5635C66.611 19.8313 66.6197 20.0818 66.6197 20.3061V30.1635H63.1206V13.0226H66.1432C66.3171 13.0226 66.4632 13.0226 66.5919 13.0313C66.7206 13.04 66.8336 13.0661 66.9362 13.1009C67.0406 13.1444 67.1275 13.2052 67.2127 13.2818C67.2997 13.3687 67.3762 13.48 67.4527 13.6279L71.8562 22.327C72.011 22.6296 72.1658 22.9322 72.3032 23.2609C72.4492 23.5809 72.5884 23.9096 72.7171 24.2452C72.8458 23.9009 72.9919 23.5635 73.131 23.2348C73.2771 22.9061 73.4319 22.5948 73.5953 22.2939L77.9832 13.6279C78.0432 13.4999 78.1244 13.3829 78.2232 13.2818C78.2995 13.2001 78.3943 13.1381 78.4997 13.1009C78.6098 13.0587 78.7262 13.0352 78.844 13.0313C78.9727 13.0226 79.1188 13.0226 79.2927 13.0226H82.3501ZM89.6545 30.1722H85.6666V13.0261H89.6562V30.1739L89.6545 30.1722ZM107.886 13.0261V30.1739H105.816C105.515 30.1739 105.256 30.1218 105.051 30.0279C104.81 29.9041 104.598 29.7304 104.43 29.5183L96.3675 19.287C96.4023 19.5896 96.4197 19.8922 96.4266 20.1757C96.4353 20.4609 96.444 20.7287 96.444 20.9792V30.1722H92.9466V13.0261H95.0319C95.204 13.0261 95.3501 13.0331 95.4614 13.0505C95.5717 13.0638 95.6795 13.0931 95.7814 13.1374C95.8753 13.1809 95.9623 13.2418 96.0475 13.3183C96.1345 13.3965 96.2284 13.4992 96.3414 13.6383L104.474 23.9357C104.401 23.3279 104.364 22.7164 104.362 22.1044V13.0313H107.884V13.0226L107.886 13.0261ZM119.413 21.2922H125.494V28.5322C124.616 29.1722 123.686 29.647 122.694 29.9322C121.687 30.2252 120.643 30.3704 119.594 30.3635C118.19 30.3635 116.907 30.1392 115.752 29.6992C114.652 29.2919 113.645 28.6693 112.788 27.8679C111.966 27.087 111.317 26.1419 110.884 25.0939C110.43 23.9869 110.201 22.8001 110.213 21.6035C110.213 20.3252 110.428 19.1513 110.849 18.0783C111.252 17.0379 111.868 16.0935 112.658 15.3061C113.442 14.5287 114.399 13.9235 115.51 13.4905C116.623 13.0592 117.872 12.8435 119.249 12.8435C119.964 12.8435 120.628 12.9044 121.256 13.0174C121.886 13.1374 122.463 13.2922 122.988 13.4992C123.514 13.7079 123.997 13.9496 124.435 14.2261C124.875 14.5113 125.263 14.8139 125.608 15.1409L124.46 16.9044C124.304 17.1598 124.053 17.3431 123.762 17.4139C123.477 17.4748 123.168 17.4052 122.841 17.1983C122.552 17.0212 122.256 16.8565 121.954 16.7044C121.68 16.5674 121.395 16.455 121.101 16.3687C120.802 16.2817 120.496 16.2177 120.187 16.1774C119.829 16.1339 119.469 16.1142 119.108 16.1183C118.369 16.1183 117.698 16.247 117.103 16.5148C116.519 16.7653 116 17.1467 115.587 17.6296C115.15 18.1338 114.822 18.7222 114.621 19.3583C114.39 20.0809 114.277 20.8361 114.286 21.5948C114.286 22.5026 114.414 23.3148 114.665 24.0226C114.915 24.7305 115.268 25.327 115.726 25.8105C116.181 26.2957 116.733 26.6661 117.369 26.9252C118.008 27.1757 118.714 27.3061 119.489 27.3061C119.962 27.3061 120.402 27.2626 120.79 27.167C121.178 27.0731 121.555 26.9513 121.919 26.7879V24.1844H120.23C120.016 24.1963 119.807 24.1253 119.644 23.9861C119.574 23.9211 119.519 23.8421 119.482 23.7543C119.445 23.6665 119.426 23.5719 119.428 23.4765V21.2905H119.411L119.413 21.2922ZM57.3258 22.4505C57.0942 23.7162 56.4262 24.8606 55.4379 25.6846C54.4497 26.5085 53.2038 26.9599 51.9171 26.96H51.7953C51.4075 26.9513 50.9936 26.96 49.9606 26.52C48.9345 26.0783 48.7101 25.8192 47.9606 25.2331C47.531 24.8957 46.9101 24.247 46.298 23.7026C45.6962 24.36 44.3258 25.88 44.2058 26.0018C44.731 26.5722 46.0145 27.6939 46.531 28.0922L46.4545 28.0226C47.3465 28.7729 48.384 29.3306 49.5018 29.6607C50.6196 29.9908 51.7937 30.0862 52.9501 29.9409C54.6222 29.7355 56.1962 29.0402 57.4742 27.9426C58.7522 26.845 59.6772 25.3941 60.1327 23.7722L57.3258 22.4505Z" fill="white" fill-opacity="0.6"/>
<path d="M47.7606 17.8174C48.6933 16.7365 50.0109 16.0622 51.4332 15.9378C52.8554 15.8134 54.2701 16.2488 55.3763 17.1513L54.0667 18.0939L60.1067 20.8766L59.4859 14.2418L57.9276 15.3479C57.1385 14.5579 56.2009 13.932 55.1687 13.5064C54.1365 13.0807 53.0302 12.8637 51.9137 12.8679C49.2702 12.8679 46.9085 14.0766 45.3398 15.9774V15.9861C45.2806 16.0644 40.5502 21.8609 38.6041 23.7792C38.4998 23.8835 38.3885 23.9774 38.2754 24.0731L38.2163 24.1252C38.0771 24.247 37.9398 24.367 37.8024 24.4783C37.7756 24.5041 37.7464 24.5274 37.7154 24.5479C37.5867 24.6522 37.458 24.7566 37.338 24.8505C37.3032 24.8766 37.2685 24.9026 37.2424 24.9287C37.1554 24.9983 37.0685 25.0574 36.9919 25.1183C36.9589 25.1422 36.9275 25.1683 36.898 25.1966C36.8632 25.2226 36.8285 25.2487 36.7937 25.2661C36.6824 25.3426 36.5711 25.4209 36.4667 25.4992C36.4374 25.5218 36.4059 25.5416 36.3728 25.5583L36.0615 25.767C35.9451 25.841 35.8274 25.9128 35.7085 25.9826C35.6737 26 35.6389 26.0261 35.6041 26.0435C35.5189 26.0957 35.4424 26.1374 35.3641 26.1809C34.7954 26.4922 34.3206 26.6905 33.9258 26.8122C33.5293 26.9339 33.2198 26.9931 32.5902 26.9931C31.8547 26.9559 31.134 26.772 30.4706 26.4523C29.8071 26.1325 29.2143 25.6833 28.7271 25.131C28.2398 24.5788 27.8679 23.9347 27.6333 23.2366C27.3986 22.5385 27.3059 21.8006 27.3606 21.0661C27.4651 19.7463 28.0387 18.5076 28.9776 17.5741C29.9165 16.6407 31.1585 16.0743 32.4789 15.9774C34.2093 15.8661 35.7345 16.6087 36.8719 17.7235C37.0615 17.9044 38.6041 19.5722 38.9311 19.9774C39.5172 19.3479 40.9206 17.6887 40.9728 17.6279C40.6963 17.2644 39.5345 16.0383 39.4563 15.9513C37.8024 14.0939 35.4163 12.887 32.738 12.9218C28.2858 12.9809 24.5641 16.5496 24.3206 21.0087C24.1949 23.2588 24.9595 25.468 26.4493 27.1589C27.9391 28.8498 30.0344 29.8866 32.2824 30.0452C32.4458 30.0539 33.178 30.08 33.5658 30.0366C33.9624 29.9931 34.3137 29.9061 34.6163 29.8366C35.0998 29.7252 35.5902 29.4661 35.5989 29.4661C35.625 29.4574 35.6511 29.44 35.6754 29.4313C35.7711 29.3879 35.8737 29.3444 35.978 29.2922C36.0261 29.2726 36.0726 29.2493 36.1172 29.2226C36.218 29.1705 36.3311 29.12 36.4424 29.0592C36.4858 29.0418 36.5206 29.0157 36.5641 28.9983C36.865 28.8348 37.1919 28.6539 37.5206 28.447L37.658 28.36C37.7798 28.2818 37.8998 28.2035 38.0285 28.1166C38.0806 28.0818 38.1398 28.04 38.2006 28.0052L38.5798 27.7374C38.6319 27.6939 38.6841 27.6609 38.7432 27.6157C38.8719 27.5218 39.0024 27.4174 39.1311 27.3235C39.1658 27.2974 39.2006 27.2713 39.225 27.2452C39.2511 27.2279 39.2685 27.2105 39.2945 27.1931C39.4841 27.047 39.6737 26.8818 39.8719 26.7183C39.9205 26.6802 39.9669 26.6396 40.0111 26.5965C40.1554 26.4679 40.3102 26.3374 40.4667 26.2C40.5363 26.1392 40.5954 26.0783 40.665 26.0261C40.6893 26.0018 40.7241 25.9739 40.7519 25.9496L41.0945 25.6296C41.1641 25.5687 42.8858 23.8766 44.0511 22.4592C45.2128 21.0418 46.4702 19.3496 47.7624 17.8192L47.7606 17.8174Z" fill="white" fill-opacity="0.6"/>
</svg>
