<svg width="128" height="64" viewBox="0 0 128 64" fill="none" xmlns="http://www.w3.org/2000/svg">
<g clip-path="url(#clip0_0_304)">
<path fill-rule="evenodd" clip-rule="evenodd" d="M77.7232 16.0429C74.2032 16.5069 70.448 19.2701 68.752 22.6445L68.6208 22.9053L41.8416 22.9421C22.7488 22.9677 14.9776 22.9997 14.7696 23.0509C14.608 23.0893 14.3648 23.1421 14.2304 23.1693C14.0944 23.1949 13.968 23.2413 13.9488 23.2717C13.9312 23.3037 13.864 23.3277 13.8016 23.3277C13.7376 23.3277 13.4976 23.4237 13.2672 23.5405C11.9415 24.185 10.8831 25.2729 10.2752 26.6157C9.9328 27.3549 9.888 27.4765 9.888 27.6813C9.888 27.7805 9.8672 27.8829 9.8416 27.9069C9.7968 27.9533 9.4928 29.1133 8.7312 32.1469C8.032 34.9405 8 35.0925 8 35.8269C8 37.0861 8.3536 38.0157 9.1264 38.7837C9.7728 39.4253 10.2464 39.6685 11.336 39.9197C11.5568 39.9677 19.12 39.9885 37.5312 39.9901C51.768 39.9901 63.4832 40.0077 63.5632 40.0301C63.72 40.0717 63.7232 40.0829 63.8368 40.8349C63.9264 41.4237 64.0432 41.9501 64.1024 42.0381C64.128 42.0749 64.184 42.2205 64.2288 42.3645C64.6768 43.7981 66.0208 45.2861 67.5376 46.0317C68.1408 46.3293 68.3904 46.4205 69.3712 46.7005C69.7504 46.8077 97.6816 46.8653 98.4608 46.7597C99.728 46.5885 100.738 46.3213 101.571 45.9389C101.76 45.8525 101.933 45.7805 101.955 45.7805C102.157 45.7805 103.514 44.9757 104.27 44.4061C105.64 43.3757 107.134 41.6733 107.854 40.3197C108.037 39.9789 107.957 39.9901 110.158 39.9901C113.31 39.9885 114.429 39.7133 115.814 38.5965C116.688 37.8925 117.856 36.3277 117.856 35.8605C117.856 35.8333 117.896 35.7181 117.947 35.6045C118.065 35.2706 118.165 34.931 118.248 34.5869C118.501 33.6093 118.731 32.7677 118.782 32.6349C118.803 32.5805 118.885 32.2877 118.965 31.9837C119.195 31.1085 119.392 30.3981 119.434 30.2925C119.71 29.5901 120.003 28.0013 120 27.2077C119.997 26.4269 119.968 26.2157 119.773 25.6125C119.43 24.5549 118.147 23.3821 117.074 23.1485C116.206 22.9597 115.944 22.9373 114.533 22.9373C113.248 22.9373 113.04 22.9517 113.04 23.0349C113.04 23.4061 112.914 23.0189 112.877 22.5309C112.802 21.5645 112.426 20.2525 112.027 19.5629C111.04 17.8621 109.661 16.8397 107.421 16.1549L106.954 16.0109L92.5376 16.0013C84.6112 15.9949 77.944 16.0125 77.7232 16.0429ZM106.694 18.3789C109.173 18.8029 110.646 20.9789 110.315 23.7197C110.246 24.2797 110.203 24.4477 109.683 26.1101C109.084 28.0294 108.487 29.9494 107.893 31.8701L107.253 33.9197C106.917 34.9933 106.472 36.4253 106.165 37.4189C105.285 40.2621 102.83 42.7261 99.8768 43.7293C98.7232 44.1213 95.544 44.2653 91.6928 44.1021C88.7696 43.9773 87.264 42.8173 86.8176 40.3421C86.6 39.1357 86.6784 38.7325 87.848 34.9933L88.504 32.8957L89.832 28.6493C90.776 25.6525 90.9072 25.2285 90.984 24.9549C91.3024 23.8205 92.52 21.7965 93.24 21.1997C93.2928 21.1581 93.472 20.9965 93.6368 20.8413C94.3488 20.1789 95.3216 19.4829 95.896 19.2253L96.568 18.9245C97.3618 18.5685 98.2121 18.3551 99.08 18.2941C99.8096 18.2365 106.277 18.3069 106.694 18.3789ZM85.6512 18.6429C91.016 18.6429 91.0432 18.6429 91.0432 18.7741C91.0432 18.8461 90.912 19.3069 90.7552 19.7981C90.5952 20.2909 90.3152 21.1757 90.1312 21.7661C89.9472 22.3581 89.6448 23.3085 89.4592 23.8813L89.1232 24.9229L83.1392 24.9549L77.1552 24.9869L77.1024 25.2157C77.072 25.3405 76.8576 26.0365 76.6256 26.7613C75.9696 28.8125 75.0896 31.5933 74.2096 34.3933C74.0128 35.0173 73.704 35.9869 73.5232 36.5437C73.344 37.1005 73.2064 37.6141 73.2192 37.6829C73.2448 37.8045 73.3312 37.8093 76.3264 37.8093H79.408L79.6656 36.9949L80.1552 35.4541C80.4752 34.4461 80.5824 34.5229 78.8448 34.5229C77.8832 34.5229 77.368 34.4989 77.3408 34.4525C77.3168 34.4141 77.4176 34.0045 77.5648 33.5405L78.096 31.8397C78.24 31.3645 78.488 30.5821 78.6432 30.0989C78.7984 29.6157 78.9584 29.0877 79 28.9261C79.04 28.7661 79.1056 28.5533 79.144 28.4557L79.2128 28.2765H88.3088V28.4125C88.2653 28.661 88.2016 28.9056 88.1184 29.1437C88.0128 29.4717 87.7648 30.2605 87.5648 30.8957L86.84 33.2061C86.64 33.8413 86.3296 34.8301 86.152 35.4029C85.4416 37.6717 85.2864 38.1469 85.1664 38.4285C84.1264 40.8877 82.408 42.6269 80.0112 43.6477C79.0352 44.0637 77.2288 44.1757 72.7216 44.0989L69.8576 44.0493L69.3552 43.8733C67.48 43.2173 66.4432 41.6957 66.4432 39.6013C66.4432 39.0541 66.4816 38.7869 66.6992 37.8429C66.728 37.7181 66.8752 37.2349 67.0256 36.7693C67.2976 35.9261 67.7296 34.5565 68.3296 32.6365C69.001 30.4881 69.6746 28.3403 70.3504 26.1933C70.5264 25.6381 70.688 25.1053 70.7104 25.0045C70.7328 24.9069 70.7776 24.8093 70.8096 24.7901C70.8416 24.7709 70.8672 24.7101 70.8672 24.6557C70.8672 24.6029 70.9584 24.3629 71.0688 24.1229L71.344 23.5245C71.8064 22.4989 73.5712 20.6349 74.672 20.0109L75.1472 19.7389C75.6384 19.4509 76.048 19.2541 76.3344 19.1661C76.4944 19.1181 76.656 19.0557 76.6928 19.0317C76.775 18.9911 76.8621 18.9615 76.952 18.9437L77.44 18.8317C78.1419 18.6683 78.862 18.5957 79.5824 18.6157C79.9552 18.6317 82.6864 18.6445 85.6512 18.6445V18.6429ZM97.6992 24.9981C97.6544 25.0157 97.5872 25.1533 97.5488 25.3021C97.512 25.4509 97.3648 25.9469 97.2224 26.4029C96.861 27.5627 96.5021 28.7232 96.1456 29.8845L95.5696 31.7405C95.2112 32.8941 94.7328 34.4317 94.3056 35.7917C93.816 37.3549 93.7616 37.5533 93.7856 37.6861C93.8096 37.8029 93.9248 37.8093 96.6304 37.8093H99.4512L99.6768 37.0925L100.219 35.3677L100.891 33.2205C101.286 31.9645 101.72 30.5693 102.11 29.3005L102.632 27.6077C102.778 27.1325 103.014 26.3821 103.157 25.9405C103.299 25.4973 103.4 25.0957 103.381 25.0445C103.347 24.9565 97.9152 24.9117 97.6992 24.9981ZM22.8704 25.7789C24.0672 26.1869 24.4576 27.1437 24.0336 28.6317C23.96 28.8853 23.8933 29.1409 23.8336 29.3981C23.8144 29.4973 23.7744 29.5933 23.7424 29.6141C23.7104 29.6333 23.6848 29.7069 23.6848 29.7757C23.6812 29.8588 23.6611 29.9404 23.6256 30.0157C23.5936 30.0797 23.5008 30.3581 23.4176 30.6381C23.336 30.9165 23.2448 31.1613 23.216 31.1789C23.1872 31.1949 23.1632 31.2541 23.1632 31.3069C23.1632 31.4877 22.5664 32.3085 22.184 32.6541C21.328 33.4285 20.7568 33.6029 18.8848 33.6541C17.2496 33.7005 17.3792 33.6493 17.1792 34.3261C17.0992 34.5949 17.008 34.8653 16.976 34.9277C16.9422 34.9939 16.922 35.0663 16.9168 35.1405C16.9115 35.2147 16.8913 35.287 16.8576 35.3533C16.8256 35.4141 16.7664 35.5821 16.728 35.7261C16.6 36.1965 16.648 36.1789 15.4064 36.2029C13.9136 36.2301 13.832 36.2141 13.8864 35.9005C13.9376 35.6237 14.4272 34.0237 14.5152 33.8557C14.5463 33.7965 14.5658 33.7319 14.5728 33.6653C14.5728 33.6237 14.6944 33.2061 14.8416 32.7373C14.9904 32.2685 15.2576 31.4173 15.4352 30.8445C15.6128 30.2717 15.7856 29.7533 15.816 29.6909C15.8475 29.6317 15.8676 29.5671 15.8752 29.5005C15.8752 29.4029 16.3888 27.7597 16.4672 27.6077C16.5007 27.5419 16.5208 27.4701 16.5264 27.3965C16.5264 27.3405 16.552 27.2461 16.5824 27.1837C16.6708 26.9541 16.7493 26.7209 16.8176 26.4845C17.0912 25.5853 16.7696 25.6717 19.8752 25.6717C22.1984 25.6717 22.5968 25.6861 22.8704 25.7789ZM46.2512 25.7117C46.3312 25.7341 46.3968 25.7885 46.3968 25.8333C46.3968 25.9437 46.2048 26.5837 46.1312 26.7277C46.0975 26.794 46.0773 26.8663 46.072 26.9405C46.0668 27.0145 46.0472 27.0868 46.0144 27.1533C45.8918 27.4909 45.7803 27.8324 45.68 28.1773C45.5758 28.5252 45.4675 28.8719 45.3552 29.2173C45.328 29.2893 45.2032 29.6845 45.0768 30.0973L44.8464 30.8445L45.9552 30.8637C47.1232 30.8813 47.2352 30.8557 47.2416 30.5565C47.2432 30.4445 47.7536 28.8077 47.8352 28.6493C47.8666 28.5912 47.8867 28.5277 47.8944 28.4621C47.8944 28.1533 48.7712 25.7421 48.8944 25.7101C49.1984 25.6285 51.3904 25.6685 51.464 25.7581C51.5312 25.8381 51.368 26.5373 51.2048 26.8573C51.1743 26.9172 51.1553 26.9824 51.1488 27.0493C51.1488 27.1501 50.7632 28.4045 50.6864 28.5501C50.6548 28.6092 50.6347 28.6739 50.6272 28.7405C50.6272 28.8381 50.1136 30.4813 50.0352 30.6333C50.0019 30.6992 49.9817 30.7709 49.976 30.8445C49.9703 30.9192 49.9485 30.9918 49.912 31.0573C49.8624 31.1461 49.8185 31.238 49.7808 31.3325C49.5088 32.0093 48.2656 33.2845 47.88 33.2845C47.848 33.2845 47.688 33.3453 47.5264 33.4205C47.189 33.549 46.837 33.635 46.4784 33.6765C46.4704 33.6765 46.4624 33.7245 46.4624 33.7853C46.4624 33.8861 45.992 35.4349 45.8736 35.7261C45.8384 35.8142 45.8074 35.9039 45.7808 35.9949C45.7264 36.1917 45.592 36.2125 44.3808 36.2125C43.1552 36.2125 43.0128 36.1901 43.0128 35.9997C43.0128 35.8557 43.568 34.0509 43.672 33.8525C43.7568 33.6925 43.704 33.6349 43.4352 33.5917C42.8368 33.4941 42.0368 32.8685 42.0368 32.4989C42.0368 32.4349 42.008 32.3645 41.9728 32.3421C41.76 32.2109 42.0352 30.4605 42.368 29.8205C42.3996 29.7614 42.4197 29.6968 42.4272 29.6301C42.4272 29.5613 43.0192 27.6653 43.144 27.3309C43.1696 27.2589 43.2432 27.0253 43.3056 26.8093C43.3696 26.5949 43.4752 26.2669 43.5456 26.0813L43.6704 25.7421L44.0416 25.7197C44.7152 25.6765 46.104 25.6717 46.2512 25.7117ZM28.6 25.8717C28.624 25.9485 28.6112 26.0413 28.5712 26.0797C28.529 26.1265 28.5042 26.1864 28.5008 26.2493C28.5008 26.3613 27.9936 27.9933 27.9088 28.1597C27.8772 28.2189 27.8571 28.2835 27.8496 28.3501C27.8496 28.4477 27.3344 30.0909 27.2576 30.2413C27.2222 30.3166 27.2021 30.3982 27.1984 30.4813C27.1984 30.5533 27.1696 30.6285 27.1344 30.6493C27.0976 30.6717 27.0688 30.7373 27.0688 30.7949C27.0688 30.9181 26.6944 32.1565 26.6064 32.3245C26.571 32.3976 26.5509 32.477 26.5472 32.5581C26.5472 32.6237 26.5264 32.6989 26.5008 32.7245C26.4592 32.7661 26.2976 33.3101 26.2912 33.4317C26.288 33.4589 26.7936 33.4797 27.4128 33.4797H28.5392L28.7888 32.6829C28.9264 32.2445 29.0608 31.8285 29.088 31.7549C29.1356 31.6157 29.1783 31.4748 29.216 31.3325C29.344 30.8605 29.2848 30.8781 30.7504 30.8781C32.1504 30.8781 32.1744 30.8829 32.0784 31.1773C32.0432 31.2813 31.8944 31.7613 31.7456 32.2445C31.1216 34.2797 30.504 36.1165 30.4336 36.1645C30.3024 36.2445 22.7216 36.2253 22.672 36.1421C22.6272 36.0701 22.7312 35.6365 22.8448 35.4173C22.8763 35.3587 22.8964 35.2946 22.904 35.2285C22.904 35.1581 23.3712 33.6333 23.488 33.3181C23.5152 33.2461 23.632 32.8653 23.7488 32.4717C23.8272 32.1919 23.9168 31.9154 24.0176 31.6429C24.0485 31.5836 24.0681 31.519 24.0752 31.4525C24.0752 31.3549 24.5888 29.7117 24.6672 29.5613C24.6992 29.5017 24.7193 29.4365 24.7264 29.3693C24.7264 29.2733 25.24 27.6285 25.3184 27.4781C25.3492 27.4199 25.3688 27.3564 25.376 27.2909C25.376 27.2509 25.4832 26.8845 25.6144 26.4765L25.8512 25.7357H27.2032C28.5216 25.7357 28.5584 25.7389 28.6 25.8717ZM40.8336 25.9629C41.4624 26.3117 41.8896 27.0269 41.904 27.7485C41.9072 27.9021 41.4304 29.4973 41.3136 29.7213C41.2826 29.7806 41.2631 29.8452 41.256 29.9117C41.256 29.9805 40.792 31.4957 40.672 31.8205C40.6448 31.8925 40.4976 32.3613 40.3456 32.8621C40.192 33.3629 40.0448 33.8317 40.0192 33.9037C39.9232 34.1677 39.48 35.5997 39.448 35.7597C39.352 36.2157 39.3584 36.2141 37.928 36.2141C36.3696 36.2141 36.3888 36.2381 36.8944 34.8797C36.992 34.6189 37.2208 33.8269 37.2208 33.7517C37.2208 33.6237 35.0048 33.6765 34.9408 33.8061C34.8451 34.074 34.7587 34.3451 34.6816 34.6189C34.5585 35.045 34.4268 35.4686 34.2864 35.8893L34.1952 36.1821L32.9584 36.1997C31.448 36.2221 31.4192 36.2173 31.4704 35.9373C31.4845 35.8413 31.5171 35.7489 31.5664 35.6653C31.6022 35.6195 31.6224 35.5634 31.624 35.5053C31.624 35.3949 32.1296 33.7613 32.216 33.5949C32.2475 33.5363 32.2675 33.4722 32.2752 33.4061C32.2752 33.3101 32.9184 31.2781 32.9984 31.1229C33.0334 31.0475 33.053 30.9659 33.056 30.8829C33.056 30.8125 33.0848 30.7373 33.12 30.7149C33.1568 30.6925 33.1856 30.6269 33.1856 30.5709C33.1856 30.4509 33.688 28.8237 33.7776 28.6509C33.8135 28.5752 33.8337 28.493 33.8368 28.4093C33.8368 28.3389 33.8624 28.2653 33.8944 28.2461C33.9264 28.2269 33.9728 28.1293 33.9968 28.0317C34.1312 27.4861 35.1968 26.3613 35.7936 26.1325C35.9168 26.0845 36.1152 26.0029 36.2352 25.9501C36.6352 25.7741 37.0464 25.7421 38.7824 25.7629L40.5072 25.7805L40.8336 25.9629ZM56.3184 26.1133C56.3504 26.2125 55.9552 27.5245 55.7744 27.9165C55.7424 27.9885 55.68 28.1869 55.6352 28.3581C55.592 28.5277 55.5312 28.6845 55.4992 28.7037C55.4688 28.7229 55.4432 28.8029 55.4432 28.8829C55.4432 28.9629 55.408 29.0653 55.3648 29.1069C55.264 29.2093 51.8928 29.2189 51.8304 29.1181C51.7776 29.0333 52.6944 26.2605 52.8272 26.1101C52.9808 25.9341 56.2608 25.9357 56.3184 26.1133ZM18.8384 28.9421C18.7882 29.1222 18.7333 29.3009 18.6736 29.4781C18.6027 29.6934 18.5376 29.9105 18.4784 30.1293C18.3984 30.4157 18.3072 30.7005 18.2752 30.7629C18.2208 30.8701 18.2928 30.8781 19.3856 30.8781H20.5536L20.76 30.2109C20.872 29.8429 20.9888 29.4845 21.016 29.4125C21.0448 29.3421 21.1008 29.1565 21.144 28.9997C21.1769 28.8736 21.2143 28.7488 21.256 28.6253C21.2848 28.5501 21.096 28.5341 20.1216 28.5341H18.9536L18.8384 28.9421ZM36.5696 28.6109C36.5696 28.7085 36.056 30.3517 35.9776 30.5021C35.7904 30.8653 35.8256 30.8781 37.0464 30.8781H38.1728L38.4192 30.0797C38.5552 29.6413 38.6832 29.2397 38.704 29.1853C38.7232 29.1325 38.7744 28.9629 38.816 28.8109L38.8928 28.5341H37.7312C36.888 28.5341 36.5696 28.5549 36.5696 28.6109ZM61.7536 29.0237C62.7856 29.5933 62.9248 30.4381 62.3184 32.4397C62.2688 32.5997 62.1632 32.9677 62.0816 33.2525C62.0223 33.4714 61.9566 33.6886 61.8848 33.9037C61.8345 34.0535 61.7918 34.2057 61.7568 34.3597C61.7136 34.5389 61.6608 34.7277 61.6416 34.7821C61.5888 34.9245 61.3632 35.6989 61.3216 35.8893C61.2464 36.2109 61.2352 36.2141 59.8688 36.2141C58.3552 36.2141 58.3808 36.2253 58.56 35.6541C58.6272 35.4429 58.7472 35.0365 58.8288 34.7501C59.0208 34.0733 59.3168 33.0797 59.552 32.3293C59.8272 31.4493 59.92 31.5293 58.6048 31.5293H57.472L57.4304 31.7405C57.4073 31.8564 57.3752 31.9704 57.3344 32.0813C57.261 32.2961 57.1948 32.5133 57.136 32.7325C57.0801 32.9473 57.0123 33.1589 56.9328 33.3661C56.9017 33.4259 56.8821 33.491 56.8752 33.5581C56.8752 33.6029 56.8128 33.8461 56.7376 34.0973C56.5729 34.645 56.4118 35.1938 56.2544 35.7437C56.1104 36.2461 56.1936 36.2237 54.6304 36.1997C53.2864 36.1805 53.2384 36.1645 53.4144 35.7997C53.4496 35.7229 53.5136 35.5149 53.5568 35.3357C53.5984 35.1565 53.6576 34.9517 53.6848 34.8797C53.7168 34.8077 53.7744 34.6029 53.816 34.4237C53.8592 34.2461 53.9168 34.0397 53.9472 33.9693C53.976 33.8973 54.0352 33.6925 54.0768 33.5133C54.1096 33.371 54.148 33.2301 54.192 33.0909C54.2336 32.9789 54.3968 32.4189 54.5808 31.7565C54.9712 30.3485 55.9664 29.2941 57.256 28.9277C57.64 28.8189 57.896 28.8061 59.544 28.8157L61.3984 28.8269L61.7536 29.0237Z" fill="white" fill-opacity="0.2"/>
<path fill-rule="evenodd" clip-rule="evenodd" d="M99.0767 18.296C98.209 18.3565 97.3587 18.5694 96.5647 18.9248L95.8927 19.2272C95.3167 19.4832 94.3455 20.1792 93.6335 20.8432C93.5041 20.9652 93.3723 21.0846 93.2383 21.2016C92.5167 21.7984 91.2991 23.8224 90.9807 24.9552C90.9039 25.2288 90.7727 25.6528 89.8303 28.6496L88.5023 32.896C88.3215 33.4688 88.0271 34.4128 87.8463 34.9952C86.7919 38.36 86.7439 38.5552 86.7439 39.4592C86.7439 41.5712 87.8735 43.2112 89.7823 43.8672C90.7423 44.1984 97.6255 44.2768 98.9631 43.9712C102.317 43.2064 105.178 40.6032 106.162 37.4192C106.469 36.4272 106.914 34.9936 107.25 33.92L107.89 31.872L108.509 29.8864C109.186 27.7056 109.405 26.9936 109.682 26.1104C110.198 24.448 110.243 24.28 110.312 23.72C110.645 20.9792 109.17 18.8032 106.691 18.3792C106.274 18.3072 99.8079 18.2352 99.0767 18.296ZM78.3167 18.6736C77.857 18.7427 77.4005 18.8324 76.9487 18.9424C76.8589 18.9603 76.7717 18.9899 76.6895 19.0304C76.5742 19.0855 76.4543 19.1304 76.3311 19.1648C76.0447 19.2528 75.6351 19.4512 75.1439 19.7376L74.6703 20.0096C73.5679 20.6336 71.8031 22.4976 71.3423 23.5248L71.0655 24.1216C70.9551 24.3616 70.8639 24.6016 70.8639 24.6544C70.8639 24.7088 70.8383 24.7696 70.8063 24.7888C70.7743 24.808 70.7311 24.9056 70.7071 25.0032C70.6847 25.1024 70.5231 25.6384 70.3471 26.192C69.8948 27.623 69.4457 29.055 68.9999 30.488L68.3263 32.6352C67.7263 34.5552 67.2943 35.9248 67.0223 36.768C66.8719 37.232 66.7247 37.7168 66.6959 37.8416C66.4783 38.7856 66.4399 39.0528 66.4399 39.5984C66.4399 41.6944 67.4767 43.2176 69.3519 43.872L69.8559 44.048L72.7199 44.096C77.2255 44.176 79.0319 44.064 80.0079 43.648C82.4047 42.624 84.1215 40.8864 85.1631 38.4272C85.2831 38.1456 85.4383 37.6704 86.1487 35.4016C86.3263 34.8288 86.6367 33.84 86.8367 33.2048L87.5615 30.8944C87.7615 30.2592 88.0095 29.4704 88.1151 29.1424C88.2207 28.8144 88.3071 28.4864 88.3071 28.4112V28.2752H79.2095L79.1391 28.4544C79.0833 28.6093 79.0352 28.7668 78.9951 28.9264C78.9535 29.0864 78.7935 29.6144 78.6383 30.0976C78.4831 30.5808 78.2367 31.3632 78.0911 31.8384C77.9471 32.312 77.7071 33.08 77.5599 33.5424C77.4127 34.0064 77.3119 34.416 77.3359 34.4544C77.3631 34.4992 77.8799 34.5232 78.8399 34.5232C80.5775 34.5232 80.4703 34.4464 80.1503 35.4544L79.6607 36.9952L79.4047 37.8096H76.3215C73.3279 37.8096 73.2399 37.8064 73.2159 37.6832C73.2031 37.6144 73.3391 37.1024 73.5199 36.544C73.6991 35.9872 74.0079 35.0192 74.2047 34.392C75.0847 31.5936 75.9647 28.8128 76.6207 26.7616C76.8527 26.0368 77.0687 25.3424 77.0975 25.216L77.1519 24.9888L83.1359 24.9568L89.1183 24.9248L89.4543 23.8816C89.6399 23.3088 89.9423 22.3584 90.1263 21.7664C90.3103 21.176 90.5903 20.2912 90.7503 19.7984C90.9087 19.3088 91.0383 18.8464 91.0383 18.7744C91.0383 18.6432 91.0111 18.6432 85.6463 18.6432C82.6815 18.6432 79.9503 18.6304 79.5775 18.6144C79.1553 18.5977 78.7324 18.6175 78.3135 18.6736H78.3167ZM103.376 25.0464C103.395 25.0944 103.296 25.4976 103.152 25.9408C103.008 26.384 102.773 27.1344 102.627 27.608L102.107 29.2992C101.715 30.5712 101.282 31.9648 100.888 33.2208C100.481 34.511 100.076 35.8017 99.6719 37.0928L99.4463 37.8096H96.6255C93.9199 37.8096 93.8047 37.8048 93.7823 37.688C93.7567 37.5536 93.8111 37.3552 94.3007 35.792C95.1052 33.2287 95.9031 30.6634 96.6943 28.096L97.2175 26.4032C97.3599 25.9472 97.5055 25.4528 97.5439 25.3024C97.5823 25.1536 97.6495 25.016 97.6927 24.9984C97.9087 24.912 103.341 24.9568 103.376 25.0464Z" fill="white" fill-opacity="0.6"/>
</g>
<defs>
<clipPath id="clip0_0_304">
<rect width="112" height="32" fill="white" transform="translate(8 16)"/>
</clipPath>
</defs>
</svg>
